<svg width="256" height="168" viewBox="0 0 256 168" xmlns="http://www.w3.org/2000/svg" xmlns:xlink="http://www.w3.org/1999/xlink"><svg viewBox="-1 -1 66 66" width="66" height="66" y="102" xmlns="http://www.w3.org/2000/svg"><g fill="#685bc7"><path d="M41.512 48.9l-.5-.4c-3.6-3-8.1-4.7-12.7-4.8h-.4l-.4.3c-1.4 1.2-2.7 2.5-3.9 4-1.5-.8-3.2-2.5-5.3-4.9-1.6-1.8-3-3.9-3.9-6.2 1.7-.9 3.2-1.9 4.7-3.1l.3-.3.1-.4c.8-4.6 0-9.3-2.3-13.4l-.3-.5-.6-.1c-4.3-.6-8.6 0-12.6 1.6l-.5.3-.2.5c-2.2 6.4-1.5 17.8 7.2 28.9 8 9.3 16.9 11.3 23.2 11.3 1.3 0 2.5-.1 3.8-.3l.6-.1.3-.5c2.1-3.4 3.3-7.2 3.3-11.2zm-5.1 9.9c-5.5.6-15.5-.1-24.1-10.2-9.8-12.3-7.7-23.2-7-25.8 3.2-1.1 6.7-1.6 10.1-1.3 1.6 3.3 2.2 7 1.7 10.6-1.4 1.1-3 2.1-4.6 2.9l-.9.4.1 1c.3 2.2 1.8 4.9 4.7 8.4 2.8 3.4 5.2 5.4 7.3 6.2l1 .3.6-.8c1.1-1.4 2.3-2.8 3.7-4 3.7.2 7.2 1.5 10.1 3.8-.2 2.9-1.1 5.9-2.7 8.5z"/><path d="M31.812 2.2c-9.6 0-18.6 4.6-24.2 12.3l2.1 1.5c9-12.2 26.3-14.8 38.5-5.8s14.9 26.3 5.8 38.6c-3.2 4.3-7.6 7.6-12.6 9.5l.9 2.4c15.6-5.8 23.6-23.1 17.8-38.7-4.4-11.9-15.6-19.8-28.3-19.8z"/><path d="M35.212 34.9h2.6V38h-2.6zm4.4-5.8c1.6-1.3 2.7-3.2 2.9-5.3.1-3.2-2.4-5.9-5.6-6h-.4c-3.2-.1-5.8 2.3-6 5.5v.5h2.6c-.1-1.8 1.2-3.4 2.9-3.5h.5c1.8-.1 3.3 1.3 3.4 3.1v.4c-.2 1.3-.9 2.5-1.9 3.3-2.4 1.9-2.8 3.6-2.8 6.3h2.6c0-2.3.3-3.1 1.8-4.3z"/></g></svg><svg viewBox="-1 -1 66 66" width="66" height="66" x="66" y="102" xmlns="http://www.w3.org/2000/svg"><g fill="#685bc7"><path d="M59.1 32h-2.6v18h-49V20.3c0-.7.6-1.3 1.3-1.3h11.6v-2.6H8.7c-2.2 0-3.9 1.8-3.9 3.9V50H1v4c0 3.6 2.9 6.5 6.5 6.5h49c3.6 0 6.5-2.9 6.5-6.5v-4h-3.9zm1.3 20.6V54c0 2.2-1.8 3.9-3.9 3.9h-49c-2.2 0-3.9-1.8-3.9-3.9v-1.3h56.8z"/><path d="M29.4 54h6.5v2.6h-6.5zM57.9 3.6h-31c-2.8 0-5.1 2.3-5.1 5.1v13h2.6v-13c0-1.4 1.1-2.6 2.6-2.6h31c1.4 0 2.6 1.1 2.6 2.6v16.8c0 1.4-1.1 2.6-2.6 2.6H46.9l-9.7 9.8v-9.7h-6.5v2.6h3.9v7.1c0 1 .6 2 1.6 2.4.3.1.6.2 1 .2.7 0 1.3-.3 1.8-.8l9-9h9.8c2.8 0 5.1-2.3 5.1-5.1V8.7c.1-2.8-2.2-5.1-5-5.1zM34.5 48.8v-3.3c0-4.9-8.9-7-11.6-7s-11.6 2.1-11.6 7v3.3h2.6v-3.3c0-2.3 6.1-4.4 9-4.4s9 2.1 9 4.4v3.3z"/><path d="M22.9 22.9c-3.6 0-6.5 2.9-6.5 6.5v1.3c0 3.6 2.9 6.5 6.5 6.5s6.5-2.9 6.5-6.5v-1.3c0-3.6-2.9-6.5-6.5-6.5zm3.9 7.8c0 2.2-1.8 3.9-3.9 3.9-2.2 0-3.9-1.7-3.9-3.9v-1.3c0-2.2 1.7-3.9 3.9-3.9s3.9 1.7 3.9 3.9zm9.1-14.2h2.6v2.6h-2.6zm5.1 0h2.6v2.6H41zm5.2 0h2.6v2.6h-2.6z"/></g></svg><svg viewBox="-1 -1 66 66" width="66" height="66" x="132" y="102" xmlns="http://www.w3.org/2000/svg"><g fill="#685bc7"><path d="M2 .5v63h60V.5zm57.2 2.9v5.7H4.8V3.4zM4.8 60.5V11.9h54.3v48.6z"/><path d="M7.7 4.8h2.8v2.8H7.7zm5.7 0h2.8v2.8h-2.8zm5.8 0H22v2.8h-2.8zm27.7 46.3c.2-.8.2-1.6.1-2.4h3.1v-2.2h-3.4c-.1-.7-.2-1.5-.2-2.2 0-1.3.4-2.6 2.2-2.6.7 0 1.3.1 1.9.4l.4.2.6-2.3-.2-.1c-.8-.4-1.8-.7-2.7-.6-2.8 0-4.7 2.1-4.7 5.1 0 .7.1 1.5.2 2.2h-2.1v2.2h2.4c.1.5.1.9.1 1.4 0 1.6-1 3.1-2.4 3.9H42v1.8h10.2v-2.5h-6.4c.5-.7.9-1.4 1.1-2.3zM14 20.8l-2.4-2.3-2 2 4.4 4.4 7.2-7.3-2-2zm9.7-.9h27.6v2.8H23.7zM14 32.4L11.6 30l-2 2 4.4 4.4 7.2-7.3-2-2zm9.7-.9h17.7v2.8H23.7z"/></g></svg><svg viewBox="-1 -1 256 102" width="256" height="102" xmlns="http://www.w3.org/2000/svg"><g fill="#fff"><path d="M34.8 73.1c-2.2 0-4.2.7-5.7 2.1-1.6 1.4-2.4 3.3-2.4 5.6 0 2.4.8 4.3 2.5 5.6 1.6 1.4 3.5 2.1 5.7 2.1 3.6 0 6.1-1.4 7.5-4.3.2-.5.4-1.1.6-1.9s.3-1.8.5-2.9c.1-.8.1-1.6.2-2.4v-4z"/><path d="M.8 14.7v84.2h53.8V14.7L27.7.9zm31 29.7c0 3.1-1.1 5.5-3.3 7.4-2.1 1.9-4.7 2.8-7.8 2.8H12c.1 1.2.2 2.3.4 3.1s.4 1.5.7 2.1c1.4 2.8 3.9 4.3 7.5 4.3 2.2 0 4.3-.8 6.1-2.4 2.4-2.1 5.1-3.1 8.1-3.1 2.2 0 4.3.5 6.1 1.6.9.5 1.7 1.1 2.4 1.9.7.7 1.2 1.5 1.7 2.4.3.6.5 1.2.7 2s.4 1.6.5 2.6.2 2 .3 2.9c.1 1 .1 2 .1 3s0 2-.1 3-.2 1.9-.3 2.8c-.3 1.9-.7 3.4-1.1 4.4-.8 1.7-2.2 3.1-4.1 4.2-1.8 1.1-3.9 1.6-6.2 1.6-3 0-5.6-.9-7.8-2.8s-3.3-4.4-3.3-7.4c0-3.1 1.1-5.5 3.3-7.4 2.1-1.9 4.7-2.8 7.8-2.8h8.7c-.1-1.2-.2-2.3-.4-3.1s-.4-1.5-.7-2.1c-1.4-2.8-3.9-4.3-7.5-4.3-2.2 0-4.3.8-6.1 2.4-2.4 2.1-5.1 3.1-8.1 3.1-2.2 0-4.3-.5-6.1-1.6-.9-.5-1.7-1.1-2.4-1.9-.7-.7-1.2-1.5-1.7-2.4-.3-.6-.5-1.2-.7-2s-.4-1.6-.5-2.6-.2-2-.3-2.9c-.1-1-.1-2-.1-3s.1-2.1.1-3c.1-1 .2-1.9.3-2.8.3-1.9.7-3.4 1.1-4.4.8-1.7 2.2-3.1 4.1-4.2 1.8-1.1 3.9-1.6 6.2-1.6 3 0 5.6.9 7.8 2.8s3.3 4.4 3.3 7.4zM253.2 81c0-3-.7-5.2-2-6.8s-3.2-2.4-5.6-2.4c-1.5 0-2.8.4-4.1 1.2-1.2.8-2.2 2-2.9 3.4s-1.1 3.1-1.1 4.9v.6c0 2.8.8 5 2.4 6.6 1.6 1.7 3.6 2.5 6.1 2.5 3.1 0 5.4-1.2 6.9-3.6l-1.9-1.5c-.5.7-1.2 1.3-2 1.8-.7.5-1.7.7-2.8.7-1.6 0-2.9-.6-3.9-1.7s-1.6-2.6-1.6-4.4h12.5zm-3.1-1.2h-9.3c.2-1.7.7-3 1.6-3.9s1.9-1.4 3.2-1.4 2.4.4 3.2 1.4c.8.9 1.2 2.1 1.3 3.7zm-49.2 8c-.3-.4-.5-1-.5-1.7V74.6h3.4v-2.4h-3.4v-4.5l-3.1.1v4.5h-3.4v2.4h3.4v11.4c0 1.5.4 2.7 1.1 3.6s1.8 1.3 3.2 1.3c.8 0 1.6-.1 2.4-.3v-2.5c-.6.1-1.1.2-1.5.2-.8 0-1.3-.2-1.6-.6zm-34.3-16c-1.5 0-2.8.4-4.1 1.2-1.2.8-2.2 2-2.9 3.4s-1.1 3.1-1.1 4.9v.6c0 2.8.8 5 2.4 6.6 1.6 1.7 3.6 2.5 6.1 2.5 3.1 0 5.4-1.2 6.9-3.6l-1.9-1.5c-.5.7-1.3 1.3-2 1.8s-1.7.7-2.8.7c-1.6 0-2.9-.6-3.9-1.7s-1.6-2.6-1.6-4.4h12.5V81c0-3-.7-5.2-2-6.8s-3.2-2.4-5.6-2.4zm4.5 8h-9.3c.2-1.7.7-3 1.6-3.9s1.9-1.4 3.2-1.4 2.3.4 3.2 1.4c.8.9 1.2 2.1 1.3 3.7z"/><path d="M13 41.1c-.2.5-.4 1.1-.6 1.9s-.3 1.8-.5 2.9c-.1.8-.1 1.6-.2 2.4v4h8.8c2.4-.1 4.3-.8 5.8-2.2 1.6-1.4 2.4-3.3 2.4-5.6 0-2.4-.8-4.3-2.5-5.6-1.6-1.4-3.5-2.1-5.7-2.1-3.6 0-6.1 1.4-7.5 4.3zm197.4-1c.4-.9 1-1.7 1.8-2.2s1.7-.8 2.7-.8c1.3 0 2.2.4 2.8 1 .6.7.9 1.7.9 3v12.1h3.2V41c0-4.4-2-6.6-5.9-6.6-2.2 0-4.1.9-5.5 2.7l-.1-2.3h-3.1v18.5h3.2zM85.5 77.9c-.1-1.9-.7-3.3-1.9-4.4s-2.9-1.6-5-1.6c-1.3 0-2.5.3-3.7.8s-2 1.1-2.7 2-1 1.8-1 2.7h3.2c0-.8.3-1.5 1.1-2.1.7-.6 1.7-.9 2.8-.9 1.3 0 2.2.3 2.9 1 .7.6 1 1.5 1 2.6v1.5h-3.1c-2.7 0-4.7.5-6.2 1.6s-2.2 2.6-2.2 4.5c0 1.6.6 2.9 1.8 3.9S75.2 91 77 91c2 0 3.8-.7 5.3-2.2.1.9.2 1.5.4 1.9h3.4v-.3c-.4-1-.6-2.3-.6-4zm-3.3 7.6c-.4.8-1 1.5-1.9 2s-1.8.8-2.8.8c-1.1 0-1.9-.3-2.6-.9-.7-.5-1-1.3-1-2.3 0-2.3 1.9-3.4 5.8-3.4h2.5zm27.2-36.8c0 1.5.4 2.7 1.1 3.6s1.8 1.3 3.2 1.3c.8 0 1.6-.1 2.4-.3v-2.5c-.6.1-1.1.2-1.5.2-.8 0-1.3-.2-1.6-.6s-.5-1-.5-1.7V37.2h3.4v-2.4h-3.4v-4.4h-3.1v4.5H106v2.4h3.4zm85 4.8c1.6 0 3.1-.4 4.4-1.2s2.3-1.9 3-3.3 1-3 1-4.8V44c0-2.8-.7-5.2-2.3-6.9-1.5-1.7-3.6-2.6-6.1-2.6-1.6 0-3 .5-4.3 1.2s-2.3 1.8-3 3.3-1.1 3.1-1.1 4.9c0 3 .7 5.3 2.3 7s3.6 2.6 6.1 2.6zM190.6 39c1-1.3 2.2-1.9 3.8-1.9s2.8.6 3.8 1.9c.9 1.2 1.4 2.9 1.4 4.9 0 2.3-.5 4-1.4 5.3s-2.2 1.9-3.8 1.9-2.8-.7-3.8-1.9c-.9-1.2-1.4-2.9-1.4-4.9 0-2.4.4-4.1 1.4-5.3zm-9.1 37.2c.9-1.1 2.1-1.7 3.7-1.7 1.2 0 2.2.4 3 1.2.9.7 1.3 1.7 1.4 2.9h3c-.1-1.9-.8-3.6-2.2-4.8-1.4-1.3-3.1-1.9-5.2-1.9-1.7 0-3.2.4-4.4 1.2s-2.1 1.9-2.8 3.3-1 3-1 4.8v.5c0 2.9.7 5.2 2.2 6.9s3.5 2.5 6 2.5c1.3 0 2.5-.3 3.6-.9s2-1.3 2.7-2.3c.7-.9 1-1.9 1.1-3h-3c-.1 1.1-.6 1.9-1.4 2.6-.9.7-1.9 1-3 1-1.6 0-2.9-.6-3.7-1.8-.9-1.1-1.3-2.8-1.3-4.9v-.6c0-2.2.4-3.9 1.3-5zM178 34.8h3.2v18.5H178zm1.7-3.1c.6 0 1.1-.2 1.4-.5.3-.4.5-.8.5-1.3s-.2-.9-.5-1.3c-.3-.3-.8-.5-1.4-.5s-1.1.1-1.4.5-.5.8-.5 1.3.1 1 .5 1.3c.3.3.8.5 1.4.5zm50.2 42.6l-.1-2.1h-3.1v18.4h3.2V77.5c.7-1.7 2.1-2.6 4.2-2.6.6 0 1.1 0 1.6.1v-3c-.3-.1-.8-.2-1.4-.2-1.9 0-3.4.8-4.4 2.5zm-124.4 1.9c.9-1.1 2.1-1.7 3.7-1.7 1.2 0 2.2.4 3 1.2.9.7 1.3 1.7 1.4 2.9h3c-.1-1.9-.8-3.6-2.2-4.8-1.4-1.3-3.1-1.9-5.2-1.9-1.7 0-3.2.4-4.4 1.2s-2.1 1.9-2.8 3.3-1 3-1 4.8v.5c0 2.9.7 5.2 2.2 6.9s3.5 2.5 6 2.5c1.3 0 2.5-.3 3.6-.9s2-1.3 2.7-2.3c.7-.9 1-1.9 1.1-3h-3c-.1 1.1-.6 1.9-1.4 2.6-.9.7-1.9 1-3 1-1.6 0-2.9-.6-3.7-1.8-.9-1.1-1.3-2.8-1.3-4.9v-.6c0-2.2.4-3.8 1.3-5zm35.8-10.7c-.6 0-1.1.1-1.4.5s-.5.8-.5 1.3.2 1 .5 1.3.8.5 1.4.5 1.1-.1 1.4-.5.5-.8.5-1.3-.2-.9-.5-1.3c-.3-.3-.8-.5-1.4-.5zm-1.7 6.7h3.2v18.5h-3.2zm10.1-34.1c.6.7.9 1.7.9 3v12.1h3.2V41c0-4.4-2-6.6-5.9-6.6-2.2 0-4.1.9-5.5 2.7l-.1-2.3h-3.1v18.5h3.2V40.1c.4-.9 1-1.7 1.8-2.2s1.7-.8 2.7-.8c1.3 0 2.2.4 2.8 1zm-22.2-3.6c-1.5 0-2.9.4-4.1 1.2s-2.2 2-2.9 3.4-1.1 3.1-1.1 4.9v.5c0 2.8.8 4.9 2.4 6.6s3.6 2.5 6.1 2.5c3.1 0 5.4-1.2 6.9-3.5l-1.9-1.5c-.5.7-1.2 1.3-2 1.8-.7.5-1.7.7-2.8.7-1.6 0-2.9-.6-3.9-1.7s-1.6-2.6-1.6-4.4h12.5v-1.3c0-3-.7-5.2-2-6.8s-3.2-2.4-5.6-2.4zm4.5 7.9h-9.3c.2-1.7.7-3 1.6-3.9s1.9-1.4 3.2-1.4 2.4.5 3.2 1.4 1.2 2.1 1.3 3.7zm20.7 45.4c-.3-.4-.5-1-.5-1.7V74.6h3.4v-2.4h-3.4v-4.5l-3.1.1v4.5h-3.4v2.4h3.4v11.4c0 1.5.4 2.7 1.1 3.6s1.8 1.3 3.2 1.3c.8 0 1.6-.1 2.4-.3v-2.5c-.6.1-1.1.2-1.5.2-.8 0-1.3-.2-1.6-.6zM93.4 74.3l-.1-2.1h-3.1v18.4h3.2V77.5c.7-1.7 2.1-2.6 4.2-2.6.6 0 1.1 0 1.6.1v-3c-.3-.1-.8-.2-1.4-.2-1.9 0-3.4.8-4.4 2.5zm125.4 11.4c-.8 1.8-2.4 2.7-4.8 2.7-2.3 0-3.4-1.4-3.4-4.2V72.3h-3.2v12c0 2.3.6 4 1.6 5.1s2.5 1.7 4.5 1.7c2.4 0 4.2-.8 5.4-2.2l.1 1.8h3V72.2h-3.2zM98.4 44l6-9.1h-3.7l-4.1 6.7-4.1-6.7h-3.7l6 9.1-6.2 9.3h3.7l4.3-6.9 4.3 6.9h3.7zm-19.8-9.5c-1.5 0-2.8.4-4.1 1.2-1.2.8-2.2 2-2.9 3.4s-1.1 3.1-1.1 4.9v.5c0 2.8.8 4.9 2.4 6.6s3.6 2.5 6.1 2.5c3.1 0 5.4-1.2 6.8-3.5l-1.9-1.5c-.5.7-1.2 1.3-2 1.8-.7.5-1.7.7-2.8.7-1.6 0-2.9-.6-3.9-1.7s-1.6-2.6-1.6-4.4h12.6v-1.3c0-3-.7-5.2-2-6.8s-3.2-2.4-5.6-2.4zm4.4 7.9h-9.2c.2-1.7.7-3 1.6-3.9s1.9-1.4 3.2-1.4 2.3.5 3.1 1.4 1.2 2.1 1.3 3.7zm45.8 29.4c-2.3 0-4.1.9-5.5 2.6v-9.9h-3.2v26.2h3.2V77.5c.4-.9 1-1.7 1.8-2.2s1.7-.8 2.7-.8c1.3 0 2.2.4 2.8 1 .6.7.9 1.7.9 3v12.1h3.2V78.4c0-4.4-2-6.6-5.9-6.6zm39.9-21.3c-.7.5-1.7.7-2.9.7-1.3 0-2.3-.3-3.1-.9s-1.2-1.4-1.3-2.5h-3.2c0 1 .4 2.1 1 3 .7.9 1.6 1.7 2.7 2.2s2.4.8 3.9.8c2.1 0 3.8-.5 5.1-1.5s2-2.3 2-4c0-1-.2-1.8-.7-2.5s-1.3-1.3-2.2-1.8-2.2-.9-3.8-1.3c-1.6-.3-2.7-.7-3.3-1.1s-.9-.9-.9-1.7.4-1.5 1-2c.7-.5 1.6-.8 2.7-.8s2.1.3 2.8.9 1.1 1.3 1.1 2.2h3.2c0-1.6-.7-3-2-4.1s-3-1.6-5.1-1.6c-2 0-3.6.6-4.9 1.6s-1.9 2.3-1.9 3.8c0 1 .3 1.7.7 2.4.5.7 1.2 1.2 2.1 1.7.9.4 2.2.9 3.8 1.2s2.7.7 3.4 1.2 1 1.1 1 2c0 .8-.3 1.4-1.2 2.1z"/></g></svg></svg>