<svg viewBox="0 0 64 64" xmlns="http://www.w3.org/2000/svg"><g fill="#685bc7"><path d="M2 .5v63h60V.5zm57.2 2.9v5.7H4.8V3.4zM4.8 60.5V11.9h54.3v48.6z"/><path d="M7.7 4.8h2.8v2.8H7.7zm5.7 0h2.8v2.8h-2.8zm5.8 0H22v2.8h-2.8zm27.7 46.3c.2-.8.2-1.6.1-2.4h3.1v-2.2h-3.4c-.1-.7-.2-1.5-.2-2.2 0-1.3.4-2.6 2.2-2.6.7 0 1.3.1 1.9.4l.4.2.6-2.3-.2-.1c-.8-.4-1.8-.7-2.7-.6-2.8 0-4.7 2.1-4.7 5.1 0 .7.1 1.5.2 2.2h-2.1v2.2h2.4c.1.5.1.9.1 1.4 0 1.6-1 3.1-2.4 3.9H42v1.8h10.2v-2.5h-6.4c.5-.7.9-1.4 1.1-2.3zM14 20.8l-2.4-2.3-2 2 4.4 4.4 7.2-7.3-2-2zm9.7-.9h27.6v2.8H23.7zM14 32.4L11.6 30l-2 2 4.4 4.4 7.2-7.3-2-2zm9.7-.9h17.7v2.8H23.7z"/></g></svg>