<svg id="Layer_1" xmlns="http://www.w3.org/2000/svg" viewBox="0 0 128 128"><style>.st0{display:none}.st1{display:inline;opacity:.1;enable-background:new}.st2{fill:#fff}</style><g id="Layer_1_1_" class="st0"><path class="st1" d="M118.6 111.6c4.2-1.2 7.4-5 7.4-9.6V26c0-4.6-3.1-8.5-7.4-9.6-.5-1.7-1.3-3.1-2.5-4.3L128 .2l-.2-.2L116 11.9c-1.2-1.2-2.7-2-4.3-2.5-1.2-4.2-5-7.4-9.6-7.4H26c-4.6 0-8.5 3.1-9.6 7.4-1.7.5-3.1 1.3-4.3 2.5L.1-.1l-.2.2 12 11.9c-1.2 1.2-2 2.7-2.5 4.3C5.1 17.5 2 21.4 2 26v76c0 4.6 3.1 8.5 7.4 9.6.5 1.7 1.3 3.1 2.5 4.3L0 127.8l.2.2L12 116.1c1.2 1.2 2.7 2 4.3 2.5 1.2 4.2 5 7.4 9.6 7.4h76c4.6 0 8.5-3.1 9.6-7.4 1.7-.5 3.1-1.3 4.3-2.5l11.9 11.9.2-.2-11.8-11.8c1.2-1.2 2.1-2.7 2.5-4.4zm-.2-.2c-.8.2-1.6.3-2.4.3h-4v-8.5c2.6-3.1 4.8-6.5 6.8-10.1V109c0 .8-.2 1.7-.4 2.4zm-6.4-8.6V25.2c2.6 3.2 4.8 6.6 6.8 10.3v57c-2 3.7-4.2 7.1-6.8 10.3zm13.8-.8c0 4.4-3 8.2-7 9.4.2-.8.3-1.5.3-2.4V92.6c3.7-7 6-14.9 6.8-23.2V102h-.1zM119 92V36c4.3 8.4 6.8 17.9 6.8 28s-2.5 19.6-6.8 28zm6.8-66v32.6c-.7-8.3-3.1-16.1-6.8-23.2V19c0-.8-.1-1.6-.3-2.4 4.1 1.2 7.1 5 7.1 9.4zm-7-7v15.9c-1.9-3.6-4.2-7-6.8-10.1v-8.5h4c.8 0 1.7.1 2.4.3.2.7.4 1.6.4 2.4zm-.4-2.7c-.8-.2-1.5-.3-2.4-.3h-3.8l3.8-3.8c1.1 1.1 1.9 2.5 2.4 4.1zm-2.6-4.3l-3.8 3.8V12c0-.8-.1-1.6-.3-2.4 1.6.5 3 1.3 4.1 2.4zm-4 0v4h-8.5c-3.1-2.6-6.5-4.8-10.1-6.8H109c.8 0 1.7.1 2.4.3.2.8.4 1.7.4 2.5zm-86.9 99.8c-1.5-1.3-3-2.6-4.4-4L64 64.2l43.5 43.5c-1.4 1.4-2.9 2.8-4.4 4H24.9v.1zm77.9.2c-3.2 2.6-6.6 4.8-10.3 6.8h-57c-3.7-1.9-7.1-4.2-10.3-6.8h77.6zm.3-95.8c1.5 1.3 3 2.6 4.4 4L64 63.8 20.5 20.3c1.4-1.4 2.9-2.8 4.4-4l78.2-.1zM25.2 16c3.2-2.6 6.6-4.8 10.3-6.8h57c3.7 1.9 7.1 4.2 10.3 6.8H25.2zm78.3.2h8l-3.8 3.8c-1.3-1.3-2.7-2.5-4.2-3.8zm-83.2 3.9l-3.8-3.8h8c-1.5 1.2-2.9 2.4-4.2 3.8zm-.2.2c-1.3 1.3-2.6 2.7-3.8 4.2v-8l3.8 3.8zm.2.2L63.8 64l-43.5 43.5c-1.4-1.4-2.8-2.9-4-4.4V24.9c1.2-1.6 2.6-3 4-4.4zm-.2 87.2l-3.8 3.8v-8c1.2 1.5 2.4 2.9 3.8 4.2zm.2.2c1.3 1.3 2.7 2.6 4.2 3.8h-8l3.8-3.8zm87.4 0l3.8 3.8h-8c1.5-1.2 2.9-2.4 4.2-3.8zm.2-.2c1.3-1.3 2.6-2.7 3.8-4.2v8l-3.8-3.8zm-.2-.2L64.2 64l43.5-43.5c1.4 1.4 2.8 2.9 4 4.4v78.2c-1.2 1.6-2.6 3-4 4.4zm.2-87.2l3.8-3.8v8c-1.2-1.5-2.4-2.9-3.8-4.2zM102 2.2c4.4 0 8.2 3 9.4 7-.8-.1-1.6-.2-2.4-.2H92.6c-7-3.7-14.9-6-23.2-6.8H102zM92 9H36c8.4-4.3 17.9-6.8 28-6.8S83.6 4.7 92 9zM26 2.2h32.6C50.3 3 42.4 5.3 35.4 9H19c-.8 0-1.6.1-2.4.3 1.2-4.1 5-7.1 9.4-7.1zm-9.4 7.4c.8-.2 1.6-.3 2.4-.3h15.9c-3.6 1.9-7 4.2-10.1 6.8h-8.5v-4c-.1-.9.1-1.8.3-2.5zm-.3 0c-.2.8-.3 1.6-.3 2.4v3.8L12.2 12c1.1-1.1 2.5-1.9 4.1-2.4zM12 12.2l3.8 3.8H12c-.8 0-1.6.1-2.4.3.5-1.6 1.3-3 2.4-4.1zm-2.4 4.4c.8-.2 1.6-.3 2.4-.3h4v8.5c-2.6 3.1-4.8 6.5-6.8 10.1V19c0-.8.2-1.7.4-2.4zm6.4 8.6v77.6c-2.6-3.2-4.8-6.6-6.8-10.3v-57c2-3.7 4.2-7.1 6.8-10.3zM2.2 26c0-4.4 3-8.2 7-9.4-.1.8-.2 1.6-.2 2.4v16.4c-3.7 7-6 14.9-6.8 23.2V26zM9 36v56c-4.3-8.4-6.8-17.9-6.8-28S4.7 44.4 9 36zm-6.8 66V69.4C3 77.7 5.3 85.6 9 92.6V109c0 .8.1 1.6.3 2.4-4.1-1.2-7.1-5-7.1-9.4zm7 7V93.1c1.9 3.6 4.2 7 6.8 10.1v8.5h-4c-.8 0-1.7-.1-2.4-.3-.2-.7-.4-1.6-.4-2.4zm2.8 6.8c-1.1-1.1-1.9-2.5-2.4-4.1.8.2 1.5.3 2.4.3h3.8l-3.8 3.8zm.2.2l3.8-3.8v3.8c0 .8.1 1.6.3 2.4-1.6-.5-3-1.3-4.1-2.4zm4 0v-4h8.5c3.1 2.6 6.5 4.8 10.1 6.8H19c-.8 0-1.7-.1-2.4-.3-.2-.8-.4-1.7-.4-2.5zm9.8 9.8c-4.4 0-8.2-3-9.4-7 .8.2 1.5.3 2.4.3h16.4c7 3.7 14.9 6 23.2 6.8H26v-.1zm10-6.8h56c-8.4 4.3-17.9 6.8-28 6.8s-19.6-2.5-28-6.8zm66 6.8H69.4c8.3-.7 16.1-3.1 23.2-6.8H109c.8 0 1.6-.1 2.4-.3-1.2 4.1-5 7.1-9.4 7.1zm9.4-7.4c-.8.2-1.6.3-2.4.3H93.1c3.6-1.9 7-4.2 10.1-6.8h8.5v4c.1.9-.1 1.8-.3 2.5zm.3 0c.2-.8.3-1.5.3-2.4v-3.8l3.8 3.8c-1.1 1.1-2.5 1.9-4.1 2.4zm.5-6.4h3.8c.8 0 1.6-.1 2.4-.3-.5 1.6-1.3 3-2.4 4.1l-3.8-3.8z"/></g><path class="st2" d="M40.2 61.8c0 .3.2.6.5.8s.6.3 1 .2l4-.4-4.4 6.6-.3.4c-.1.2-.2.3-.3.4s-.1.3-.2.4c0 .2-.1.3 0 .5 0 .5.2.8.6 1.1.3.2.6.3 1.1.3h.3l7-.7c.4 0 .8-.2 1-.4.2-.2.3-.6.3-.9 0-.4-.2-.6-.5-.8-.3-.2-.6-.2-1-.2l-4.9.5 4.1-6c.4-.5.6-.9.7-1.1.1-.3.2-.6.2-1.1s-.2-.8-.5-1.1c-.3-.2-.7-.3-1.2-.3l-6.1.6c-.4 0-.8.2-1 .4-.3.2-.4.5-.4.8zm21.3-.6c-.5-.9-1.3-1.5-2.2-1.9s-2-.5-3.1-.4c-.9.1-1.6.3-2.3.6s-1.2.8-1.7 1.4c-.4.6-.7 1.2-.9 2s-.2 1.6-.1 2.4c.1.8.3 1.6.6 2.3.3.7.7 1.3 1.3 1.8.5.5 1.2.8 1.9 1.1.5.2 1.1.2 1.7.2h.7c.9-.1 1.7-.3 2.4-.7.7-.4 1.2-.8 1.7-1.4.4-.6.7-1.3.9-2s.2-1.6.1-2.4c-.2-1.2-.5-2.2-1-3zm-4.8.1c.4 0 .8.1 1.2.3s.8.6 1.1 1.1.5 1.1.5 1.9c.1.8 0 1.5-.2 2s-.5.9-.9 1.2c-.4.3-.8.5-1.3.5-.4 0-.7 0-1.1-.1-.3-.1-.6-.3-.9-.6-.3-.3-.5-.6-.7-1s-.3-1-.4-1.5c-.1-.6 0-1.1.1-1.5.1-.5.2-.8.5-1.1.2-.3.5-.5.8-.7s.7-.3 1-.3c.1-.2.2-.2.3-.2zm12.1-3.7c-.9.1-1.6.3-2.3.6-.7.3-1.2.8-1.7 1.4-.4.6-.7 1.2-.9 2-.2.7-.2 1.6-.1 2.4.1.8.3 1.6.6 2.3.3.7.7 1.3 1.3 1.8.5.5 1.2.8 1.9 1.1.5.2 1.1.2 1.7.2h.7c.9-.1 1.7-.3 2.4-.7.7-.4 1.2-.8 1.7-1.4.4-.6.7-1.3.9-2 .2-.7.2-1.5.1-2.4-.1-1.2-.4-2.2-1-3-.5-.9-1.3-1.5-2.2-1.9-.8-.4-1.9-.5-3.1-.4zm.6 2.5c.4 0 .8.1 1.2.3.4.2.8.6 1.1 1.1.3.5.5 1.1.5 1.9.1.8 0 1.5-.2 2s-.5.9-.9 1.2c-.4.3-.8.4-1.3.5-.4 0-.7 0-1.1-.1-.3-.1-.6-.3-.9-.6-.3-.3-.5-.6-.7-1s-.3-1-.4-1.5c-.1-.6 0-1.1.1-1.5s.2-.8.5-1.1c.2-.3.5-.5.8-.7s.7-.3 1-.3c.1-.2.2-.2.3-.2zm11.8 6.8l.3.6c.2.2.3.4.6.5.3.1.5.2.9.1.4 0 .8-.2 1-.5.2-.2.4-.5.4-.8.1-.2.1-.6.2-1l.6-4 .4 4.4c0 .5.2.9.5 1.1.3.3.6.4 1 .3.4 0 .7-.2 1-.5.2-.3.3-.7.3-1.2l-.8-8.5c-.1-.6-.3-1-.7-1.2-.3-.2-.7-.2-1.2-.2l-.7.2c-.5 0-.8.1-1 .2-.3.1-.4.4-.5.6-.1.2-.2.6-.2 1l-.8 4.7-1.6-4.4c-.2-.5-.3-.8-.4-1-.2-.3-.4-.4-.7-.5-.2-.1-.6-.1-1 0l-.7.1c-.5 0-.9.2-1.2.4-.3.3-.5.7-.4 1.3l.8 8.5c0 .5.2.9.5 1.1.2.2.6.3.9.3h.1c.4 0 .7-.2 1-.5.2-.3.3-.7.3-1.2l-.4-4.4 1.4 3.8.1.7zM18.6 45.8c.5 0 .9-.2 1.3-.5l1.4-1.2c.8-.7.9-2 .2-2.8s-2-.9-2.8-.2l-1.4 1.2c-.8.7-.9 2-.2 2.8.4.4.9.7 1.5.7z"/><path class="st2" d="M123.9 53.9c0-.2-.1-.3-.2-.4 0 0 0-.1-.1-.1-.1-.1-.1-.2-.2-.3l-.1-.1-.1-.1-25-21.3-1.4-14.4c-.1-1.1-1.1-1.9-2.2-1.8l-13.8 1.4-8.4-7.1c-4.6-3.9-12.2-3.9-16.8 0L42.8 20.4l-3.7.4c-1.1.1-1.9 1.1-1.8 2.2.1 1.1 1.1 1.9 2.2 1.8l40.8-4L93 19.5 97.7 67 64 87.8 32.7 68.6l-4.2-42.7 3.4-.3c1.1-.1 1.9-1.1 1.8-2.2s-1.1-1.9-2.2-1.8l-5.4.5c-1.1.1-1.9 1.1-1.8 2.2l4.1 41.6-19-11.7 5.9-5c.8-.7.9-2 .2-2.8s-2-.9-2.8-.2l-8 6.8-.1.1-.1.1c-.1.1-.2.2-.2.3l-.1.1c-.1.1-.1.3-.2.4v58.7c0 4.8 3.9 8.7 8.7 8.7h102.6c4.8 0 8.7-3.9 8.7-8.7V54.4c0-.2 0-.3-.1-.5zM49.8 19.7l8.4-7.1c3.2-2.7 8.4-2.7 11.6 0l5.4 4.6-25.4 2.5zm68.8 34.5l-17.1 10.5-2.7-27.4 19.8 16.9zm1.4 58.5c0 2.6-2.1 4.7-4.7 4.7H12.7c-2.6 0-4.7-2.1-4.7-4.7V58.1l55 33.7c.6.4 1.5.4 2.1 0L120 58.1v54.6z"/><path class="st2" d="M68.8 32.9c-.1-1.1-1.1-1.9-2.2-1.8l-19 1.9c-4.1.4-7.1 4.1-6.7 8.2l1.2 12c.2 1 1 1.8 2 1.8h.2l19-1.9c4.1-.4 7.1-4.1 6.7-8.2l-1.2-12zM63 49l-17 1.7-1-10c-.2-1.9 1.2-3.6 3.1-3.8l17-1.7 1 10c.2 1.9-1.2 3.6-3.1 3.8zm17.6-19c-.7-.3-1.4-.2-2 .2l-7.1 5.5c-.9.7-1 1.9-.4 2.8.7.9 1.9 1 2.8.4l4.3-3.3 1 10.3-4.8-2.4c-1.1-.5-2.3-.1-2.8.9s-.1 2.2.9 2.7l8.1 4c.3.1.6.2.9.2.4 0 .8-.1 1.1-.4.6-.4.9-1.1.9-1.8l-1.7-17.5c-.1-.7-.5-1.4-1.2-1.6z"/></svg>