<svg id="Layer_1" xmlns="http://www.w3.org/2000/svg" viewBox="0 0 74 74"><style>.st0{fill:#fff}</style><path class="st0" d="M29.28 9.57h19.64v3.28c0 2.04 1.67 3.66 3.66 3.66 1.98 0 3.66-1.67 3.66-3.66V5.97c0-2.04-1.67-3.66-3.66-3.66-1.98 0-3.66 1.67-3.66 3.66v1.12H29.28c-.68 0-1.24.56-1.24 1.24s.56 1.24 1.24 1.24zm22.19-3.6c0-.62.5-1.18 1.18-1.18.62 0 1.18.5 1.18 1.18v6.88c0 .62-.5 1.18-1.18 1.18-.62 0-1.18-.5-1.18-1.18V5.97zm2.65 63.17H16.64c-7.13 0-12.89-5.76-12.89-12.89v-33.8c0-6.51 4.9-12.02 11.34-12.83.68-.06 1.18-.68 1.12-1.43-.06-.68-.68-1.18-1.43-1.12C7.04 8.14 1.21 14.71 1.21 22.46v33.8c0 8.49 6.88 15.43 15.43 15.43h37.54c.68 0 1.24-.56 1.24-1.24s-.56-1.31-1.3-1.31z"/><path class="st0" d="M72.78 22.39c.01-3.33-1.1-6.47-2.99-9.03-.05-.07-.11-.14-.16-.2-.21-.28-.43-.55-.66-.82l-.39-.42c-.17-.18-.33-.36-.51-.53-.21-.21-.44-.4-.66-.6-.1-.09-.2-.18-.3-.26-2.2-1.81-4.9-3.05-7.9-3.46-.74-.06-1.36.43-1.43 1.12-.06.74.43 1.36 1.12 1.43.07.01.14.03.21.04.09.04.18.07.28.09 1.92.29 3.69 1.02 5.23 2.07.05.04.1.08.16.11.24.17.48.35.71.54.1.08.2.17.3.26.17.15.35.3.51.47.15.14.29.29.43.44.11.11.21.22.32.34.21.24.4.48.59.73.03.03.05.07.08.1a12.82 12.82 0 0 1 2.52 7.64v1.05H9.02c-.43 0-.81.37-.81.81s.37.81.81.81h61.22v31.13c0 7.13-5.76 12.89-12.89 12.89h2.53c-.74 0-1.3.62-1.3 1.3 0 .49.29.9.71 1.11 7.63-.95 13.5-7.46 13.5-15.3v-33.8c0-.02-.01-.04-.01-.06zM59.82 71.68c-.19 0-.37-.05-.53-.13-.63.08-1.28.13-1.93.13h2.46zM21.48 16.51c2.04 0 3.66-1.67 3.66-3.66V5.97c0-2.04-1.67-3.66-3.66-3.66-2.04 0-3.66 1.67-3.66 3.66v6.88c-.06 2.05 1.61 3.66 3.66 3.66zM20.3 5.97c0-.62.5-1.18 1.18-1.18.62 0 1.18.5 1.18 1.18v6.88c0 .62-.5 1.18-1.18 1.18-.62 0-1.18-.5-1.18-1.18V5.97z"/><path class="st0" d="M43.31 31.35c-.28-.28-.66-.44-1.06-.44H24.12c-1.5 0-2.9.58-3.96 1.64s-1.64 2.46-1.64 3.96v11.82a1.499 1.499 0 0 0 1.5 1.5h18.13c3.09 0 5.6-2.51 5.6-5.6V32.41c0-.4-.15-.78-.44-1.06zm-5.15 15.48H21.53V36.51a2.595 2.595 0 0 1 2.6-2.6h16.63v10.32c0 1.44-1.17 2.6-2.6 2.6zM54.7 31.1c-.48-.26-1.06-.25-1.52.04l-6.91 4.31c-.7.44-.92 1.36-.48 2.07.44.7 1.36.92 2.07.48l4.62-2.88v10.52l-4.62-2.88c-.7-.44-1.63-.22-2.07.48-.44.7-.22 1.63.48 2.07l6.91 4.3c.24.15.52.23.79.23.25 0 .5-.06.73-.19.48-.26.77-.77.77-1.31V32.42c0-.56-.3-1.06-.77-1.32zM20.97 60.94c-.09.1-.16.19-.21.26-.06.08-.11.17-.14.26a.88.88 0 0 0-.06.33c0 .33.11.59.34.79.22.19.53.29.93.29h4.96c.3 0 .54-.08.71-.23.17-.16.26-.37.26-.62s-.09-.46-.27-.61c-.17-.14-.41-.19-.7-.21h-3.51l3.32-3.96c.29-.35.49-.59.59-.75.12-.19.18-.44.18-.73 0-.67-.39-1.04-1.09-1.04h-4.35c-.3 0-.54.08-.7.23a.8.8 0 0 0-.26.61c0 .24.09.45.27.6.17.15.4.22.7.22h2.84l-3.58 4.29-.23.27zm13.29-5.82c-.6-.34-1.33-.51-2.16-.51-.61 0-1.17.1-1.66.29-.49.2-.91.48-1.26.85-.34.37-.61.82-.79 1.34-.18.51-.27 1.08-.27 1.7 0 .6.09 1.16.26 1.68.17.53.43.98.77 1.36.34.38.77.67 1.27.88.5.2 1.07.31 1.7.31.63 0 1.2-.1 1.69-.3.5-.2.93-.5 1.27-.88.34-.38.6-.83.77-1.34.17-.51.25-1.08.25-1.69 0-.83-.16-1.57-.46-2.2a3.22 3.22 0 0 0-1.38-1.49zm-.48 5.08c-.17.37-.41.64-.69.81-.52.31-1.2.34-1.71.11-.23-.1-.42-.25-.6-.45s-.32-.47-.41-.78c-.1-.32-.15-.7-.15-1.1 0-.4.05-.77.15-1.09.1-.31.23-.57.4-.77.16-.19.36-.34.59-.44.23-.1.48-.15.76-.15.39 0 .72.09 1.02.28.3.19.52.45.68.82.17.38.25.83.25 1.35-.02.56-.11 1.03-.29 1.41zm7.04-5.6c-.61 0-1.17.1-1.66.29-.49.2-.91.48-1.26.85-.34.37-.61.82-.79 1.34-.18.51-.27 1.08-.27 1.7 0 .6.09 1.16.26 1.68s.43.98.77 1.35c.34.38.77.67 1.27.88.5.2 1.07.31 1.7.31.63 0 1.2-.1 1.69-.3.5-.2.93-.5 1.27-.88.34-.38.6-.83.77-1.34.17-.51.25-1.08.25-1.69 0-.83-.16-1.57-.46-2.2-.31-.64-.78-1.13-1.39-1.48-.59-.34-1.31-.51-2.15-.51.01 0 0 0 0 0zm1.7 2.83c.17.38.25.83.25 1.35 0 .56-.09 1.04-.27 1.42-.17.37-.41.64-.69.81-.52.31-1.2.34-1.71.11-.23-.1-.42-.25-.6-.45s-.32-.47-.41-.78c-.1-.32-.15-.7-.15-1.1 0-.4.05-.77.15-1.09.1-.31.23-.57.4-.77.16-.19.36-.34.59-.44.23-.1.48-.15.76-.15.39 0 .73.09 1.02.27.28.18.5.45.66.82zm9.75-2.7h-.23c-.32 0-.56.03-.72.1a.8.8 0 0 0-.42.41c-.07.15-.14.38-.23.7l-.87 3.27-.87-3.27c-.08-.32-.16-.55-.23-.7a.8.8 0 0 0-.42-.41c-.16-.07-.4-.1-.72-.1h-.23l-.04-.15v.15h-.21c-.34 0-.63.07-.84.22-.25.17-.37.46-.37.88v6.05c0 .36.09.64.26.83.18.2.41.3.7.3s.53-.1.7-.3c.17-.19.26-.47.26-.82v-3.26l.73 2.91.12.47c.05.17.11.32.19.46a1.091 1.091 0 0 0 .97.55c.3 0 .55-.08.73-.25.17-.15.28-.32.35-.51.05-.15.12-.39.2-.71l.73-2.91v3.26c0 .35.09.63.26.82.37.41 1.05.39 1.4 0 .17-.19.26-.47.26-.82v-6.05c0-.42-.12-.72-.37-.88-.22-.14-.5-.22-.84-.22h-.21v-.15l-.04.13z"/></svg>