<svg id="Layer_1" xmlns="http://www.w3.org/2000/svg" viewBox="0 0 128 128"><style>.st0{display:none}.st1{display:inline;opacity:.1;enable-background:new}.st2{fill:#fff}</style><g id="Layer_1_1_" class="st0"><path class="st1" d="M118.6 111.6c4.2-1.2 7.4-5 7.4-9.6V26c0-4.6-3.1-8.5-7.4-9.6-.5-1.7-1.3-3.1-2.5-4.3L128 .2l-.2-.2L116 11.9c-1.2-1.2-2.7-2-4.3-2.5-1.2-4.2-5-7.4-9.6-7.4H26c-4.6 0-8.5 3.1-9.6 7.4-1.7.5-3.1 1.3-4.3 2.5L.1-.1l-.2.2 12 11.9c-1.2 1.2-2 2.7-2.5 4.3C5.1 17.5 2 21.4 2 26v76c0 4.6 3.1 8.5 7.4 9.6.5 1.7 1.3 3.1 2.5 4.3L0 127.8l.2.2L12 116.1c1.2 1.2 2.7 2 4.3 2.5 1.2 4.2 5 7.4 9.6 7.4h76c4.6 0 8.5-3.1 9.6-7.4 1.7-.5 3.1-1.3 4.3-2.5l11.9 11.9.2-.2-11.8-11.8c1.2-1.2 2.1-2.7 2.5-4.4zm-.2-.2c-.8.2-1.6.3-2.4.3h-4v-8.5c2.6-3.1 4.8-6.5 6.8-10.1V109c0 .8-.2 1.7-.4 2.4zm-6.4-8.6V25.2c2.6 3.2 4.8 6.6 6.8 10.3v57c-2 3.7-4.2 7.1-6.8 10.3zm13.8-.8c0 4.4-3 8.2-7 9.4.2-.8.3-1.5.3-2.4V92.6c3.7-7 6-14.9 6.8-23.2V102h-.1zM119 92V36c4.3 8.4 6.8 17.9 6.8 28s-2.5 19.6-6.8 28zm6.8-66v32.6c-.7-8.3-3.1-16.1-6.8-23.2V19c0-.8-.1-1.6-.3-2.4 4.1 1.2 7.1 5 7.1 9.4zm-7-7v15.9c-1.9-3.6-4.2-7-6.8-10.1v-8.5h4c.8 0 1.7.1 2.4.3.2.7.4 1.6.4 2.4zm-.4-2.7c-.8-.2-1.5-.3-2.4-.3h-3.8l3.8-3.8c1.1 1.1 1.9 2.5 2.4 4.1zm-2.6-4.3l-3.8 3.8V12c0-.8-.1-1.6-.3-2.4 1.6.5 3 1.3 4.1 2.4zm-4 0v4h-8.5c-3.1-2.6-6.5-4.8-10.1-6.8H109c.8 0 1.7.1 2.4.3.2.8.4 1.7.4 2.5zm-86.9 99.8c-1.5-1.3-3-2.6-4.4-4L64 64.2l43.5 43.5c-1.4 1.4-2.9 2.8-4.4 4H24.9v.1zm77.9.2c-3.2 2.6-6.6 4.8-10.3 6.8h-57c-3.7-1.9-7.1-4.2-10.3-6.8h77.6zm.3-95.8c1.5 1.3 3 2.6 4.4 4L64 63.8 20.5 20.3c1.4-1.4 2.9-2.8 4.4-4l78.2-.1zM25.2 16c3.2-2.6 6.6-4.8 10.3-6.8h57c3.7 1.9 7.1 4.2 10.3 6.8H25.2zm78.3.2h8l-3.8 3.8c-1.3-1.3-2.7-2.5-4.2-3.8zm-83.2 3.9l-3.8-3.8h8c-1.5 1.2-2.9 2.4-4.2 3.8zm-.2.2c-1.3 1.3-2.6 2.7-3.8 4.2v-8l3.8 3.8zm.2.2L63.8 64l-43.5 43.5c-1.4-1.4-2.8-2.9-4-4.4V24.9c1.2-1.6 2.6-3 4-4.4zm-.2 87.2l-3.8 3.8v-8c1.2 1.5 2.4 2.9 3.8 4.2zm.2.2c1.3 1.3 2.7 2.6 4.2 3.8h-8l3.8-3.8zm87.4 0l3.8 3.8h-8c1.5-1.2 2.9-2.4 4.2-3.8zm.2-.2c1.3-1.3 2.6-2.7 3.8-4.2v8l-3.8-3.8zm-.2-.2L64.2 64l43.5-43.5c1.4 1.4 2.8 2.9 4 4.4v78.2c-1.2 1.6-2.6 3-4 4.4zm.2-87.2l3.8-3.8v8c-1.2-1.5-2.4-2.9-3.8-4.2zM102 2.2c4.4 0 8.2 3 9.4 7-.8-.1-1.6-.2-2.4-.2H92.6c-7-3.7-14.9-6-23.2-6.8H102zM92 9H36c8.4-4.3 17.9-6.8 28-6.8S83.6 4.7 92 9zM26 2.2h32.6C50.3 3 42.4 5.3 35.4 9H19c-.8 0-1.6.1-2.4.3 1.2-4.1 5-7.1 9.4-7.1zm-9.4 7.4c.8-.2 1.6-.3 2.4-.3h15.9c-3.6 1.9-7 4.2-10.1 6.8h-8.5v-4c-.1-.9.1-1.8.3-2.5zm-.3 0c-.2.8-.3 1.6-.3 2.4v3.8L12.2 12c1.1-1.1 2.5-1.9 4.1-2.4zM12 12.2l3.8 3.8H12c-.8 0-1.6.1-2.4.3.5-1.6 1.3-3 2.4-4.1zm-2.4 4.4c.8-.2 1.6-.3 2.4-.3h4v8.5c-2.6 3.1-4.8 6.5-6.8 10.1V19c0-.8.2-1.7.4-2.4zm6.4 8.6v77.6c-2.6-3.2-4.8-6.6-6.8-10.3v-57c2-3.7 4.2-7.1 6.8-10.3zM2.2 26c0-4.4 3-8.2 7-9.4-.1.8-.2 1.6-.2 2.4v16.4c-3.7 7-6 14.9-6.8 23.2V26zM9 36v56c-4.3-8.4-6.8-17.9-6.8-28S4.7 44.4 9 36zm-6.8 66V69.4C3 77.7 5.3 85.6 9 92.6V109c0 .8.1 1.6.3 2.4-4.1-1.2-7.1-5-7.1-9.4zm7 7V93.1c1.9 3.6 4.2 7 6.8 10.1v8.5h-4c-.8 0-1.7-.1-2.4-.3-.2-.7-.4-1.6-.4-2.4zm2.8 6.8c-1.1-1.1-1.9-2.5-2.4-4.1.8.2 1.5.3 2.4.3h3.8l-3.8 3.8zm.2.2l3.8-3.8v3.8c0 .8.1 1.6.3 2.4-1.6-.5-3-1.3-4.1-2.4zm4 0v-4h8.5c3.1 2.6 6.5 4.8 10.1 6.8H19c-.8 0-1.7-.1-2.4-.3-.2-.8-.4-1.7-.4-2.5zm9.8 9.8c-4.4 0-8.2-3-9.4-7 .8.2 1.5.3 2.4.3h16.4c7 3.7 14.9 6 23.2 6.8H26v-.1zm10-6.8h56c-8.4 4.3-17.9 6.8-28 6.8s-19.6-2.5-28-6.8zm66 6.8H69.4c8.3-.7 16.1-3.1 23.2-6.8H109c.8 0 1.6-.1 2.4-.3-1.2 4.1-5 7.1-9.4 7.1zm9.4-7.4c-.8.2-1.6.3-2.4.3H93.1c3.6-1.9 7-4.2 10.1-6.8h8.5v4c.1.9-.1 1.8-.3 2.5zm.3 0c.2-.8.3-1.5.3-2.4v-3.8l3.8 3.8c-1.1 1.1-2.5 1.9-4.1 2.4zm.5-6.4h3.8c.8 0 1.6-.1 2.4-.3-.5 1.6-1.3 3-2.4 4.1l-3.8-3.8z"/></g><path class="st2" d="M121.6 102.5c-1.4-8.5-6.2-13.6-13.6-14.7l-9.4-1.6-3.7-4.2c-.4-.4-.9-.7-1.5-.7v-2.6c4-3.7 6.5-8.9 6.5-14.8v-4c0-1.1-.9-2.1-2.1-2.1s-2.1.9-2.1 2.1v4c0 8.8-7.2 15.9-15.9 15.9s-15.9-7-15.9-15.8v-7.5l6.6 1.4h19.4l11.3-2.4h2.2c2.3 0 4.1-1.8 4.1-4.1v-1.2c0-2.1-1.5-3.8-3.5-4-.3-9.1-5.7-16.9-13.4-20.7-.2-.2-.4-.3-.7-.3-3-1.4-6.3-2.1-9.8-2.1-3.4 0-6.8.8-9.8 2.1-.2.1-.5.2-.7.3-4.2 2.1-7.8 5.3-10.2 9.5-.8 1.3-1.4 2.7-1.9 4.2-.8 2.2-1.2 4.6-1.3 7-2 .3-3.5 2-3.5 4v1.2c0 2.3 1.8 4.1 4.1 4.1H59l.6.1V64c0 6 2.7 11.4 6.8 15.1v2.3c-.6 0-1.1.2-1.5.7l-3.6 4.2-9.4 1.6c-6.9 1-11.4 5.4-13.3 12.8H7.1V15.4h5.3c1.1 0 2.1-.9 2.1-2.1s-.9-2.1-2.1-2.1H5.1c-1.1 0-2.1.9-2.1 2.1v89.3c0 1.1.9 2.1 2.1 2.1h33.2l-1.1 9.8c-.1 1.1.7 2.1 1.8 2.3h.2c1 0 1.9-.8 2-1.8l1.4-11.8c1.1-6.8 4.5-10.5 10.3-11.3l9.2-1.5 8.8 8.4c.4.4.9.6 1.4.6s1-.2 1.4-.5l.9-.8.1.8-3.4 15.5c-.2 1.1.5 2.2 1.6 2.4h.4c.9 0 1.8-.7 2-1.6l3.1-14.2h3.5l3.1 14.2c.2 1 1.1 1.6 2 1.6h.4c1.1-.2 1.8-1.3 1.6-2.4l-3.4-15.5.1-.8.9.8c.4.4.9.5 1.4.5s1-.2 1.4-.6l8.8-8.4 9.2 1.5c5.7.9 9.1 4.6 10.2 11.2L119 115c.1 1 1 1.8 2 1.8h.2c1.1-.1 1.9-1.2 1.8-2.3l-1.4-12zM57 51.4v-1.2h1.5c.6 0 1.1-.2 1.5-.6.4-.4.6-1 .6-1.5V47c0-2.2.4-4.4 1.1-6.4.4-1.2.9-2.4 1.6-3.5 1.5-2.5 3.5-4.7 5.8-6.3v2.5c0 1.1.9 2.1 2.1 2.1 1.1 0 2.1-.9 2.1-2.1v-4.7c2.3-.9 4.7-1.4 7.3-1.4 2.6 0 5 .5 7.3 1.4V42c0 1.1.9 2.1 2.1 2.1 1.1 0 2.1-.9 2.1-2.1V30.7c5.1 3.6 8.4 9.5 8.4 16.2V48c0 .6.2 1.1.6 1.5s.9.6 1.5.6h1.5v1.2h-2.8L90 53.7H71.2l-11.3-2.4h-.4l-2.5.1zm22.9 32.7c3.4 0 6.6-.9 9.4-2.4v1.9l-9 6c-.1.1-.2.2-.3.2-.1-.1-.2-.2-.3-.2l-9-6v-1.7c2.8 1.4 5.9 2.2 9.2 2.2zm-7.7 10.3L65.5 88l1.6-1.9.5.3 7.7 5.2-3.1 2.8zm9.4 2.4h-3.2l-.2-2.3 1.7-1.6v-.1.1l1.8 1.6-.1 2.3zm6.2-2.4l-3.1-2.8 8.2-5.5 1.6 1.9-6.7 6.4z"/><path class="st2" d="M70.9 44c1.1 0 2.1-.9 2.1-2.1v-1.5c0-1.1-.9-2.1-2.1-2.1-1.1 0-2.1.9-2.1 2.1V42c.1 1.1 1 2 2.1 2zM19.7 15.4h1c1.1 0 2.1-.9 2.1-2.1s-.9-2.1-2.1-2.1h-1c-1.1 0-2.1.9-2.1 2.1s.9 2.1 2.1 2.1z"/><path class="st2" d="M122.9 11.3H30.4c-1.1 0-2.1.9-2.1 2.1s.9 2.1 2.1 2.1h90.5v67c0 1.1.9 2.1 2.1 2.1 1.1 0 2.1-.9 2.1-2.1V13.3c-.1-1.1-1-2-2.2-2zM36.5 27c-.8-.8-2.1-.8-2.9 0l-8.5 8.5-2.8-2.8c-.8-.8-2.1-.8-2.9 0s-.8 2.1 0 2.9l4.2 4.2c.4.4.9.6 1.5.6.5 0 1.1-.2 1.5-.6l9.9-9.9c.8-.8.8-2.1 0-2.9zm0 19.2c-.8-.8-2.1-.8-2.9 0l-8.5 8.5-2.7-2.7c-.8-.8-2.1-.8-2.9 0s-.8 2.1 0 2.9l4.2 4.2c.4.4.9.6 1.5.6.5 0 1.1-.2 1.5-.6l9.9-9.9c.7-.9.7-2.2-.1-3zm-2.9 19.2l-8.5 8.5-2.8-2.8c-.8-.8-2.1-.8-2.9 0s-.8 2.1 0 2.9l4.2 4.2c.4.4.9.6 1.5.6.5 0 1.1-.2 1.5-.6l9.9-9.9c.8-.8.8-2.1 0-2.9-.8-.8-2.1-.8-2.9 0z"/></svg>