<svg id="Layer_1" xmlns="http://www.w3.org/2000/svg" viewBox="0 0 128 128"><style>.st0{display:none}.st1{display:inline;opacity:.1;enable-background:new}.st2{fill:#fff}</style><g id="Layer_1_1_" class="st0"><path class="st1" d="M118.6 111.6c4.2-1.2 7.4-5 7.4-9.6V26c0-4.6-3.1-8.5-7.4-9.6-.5-1.7-1.3-3.1-2.5-4.3L128 .2l-.2-.2L116 11.9c-1.2-1.2-2.7-2-4.3-2.5-1.2-4.2-5-7.4-9.6-7.4H26c-4.6 0-8.5 3.1-9.6 7.4-1.7.5-3.1 1.3-4.3 2.5L.1-.1l-.2.2 12 11.9c-1.2 1.2-2 2.7-2.5 4.3C5.1 17.5 2 21.4 2 26v76c0 4.6 3.1 8.5 7.4 9.6.5 1.7 1.3 3.1 2.5 4.3L0 127.8l.2.2L12 116.1c1.2 1.2 2.7 2 4.3 2.5 1.2 4.2 5 7.4 9.6 7.4h76c4.6 0 8.5-3.1 9.6-7.4 1.7-.5 3.1-1.3 4.3-2.5l11.9 11.9.2-.2-11.8-11.8c1.2-1.2 2.1-2.7 2.5-4.4zm-.2-.2c-.8.2-1.6.3-2.4.3h-4v-8.5c2.6-3.1 4.8-6.5 6.8-10.1V109c0 .8-.2 1.7-.4 2.4zm-6.4-8.6V25.2c2.6 3.2 4.8 6.6 6.8 10.3v57c-2 3.7-4.2 7.1-6.8 10.3zm13.8-.8c0 4.4-3 8.2-7 9.4.2-.8.3-1.5.3-2.4V92.6c3.7-7 6-14.9 6.8-23.2V102h-.1zM119 92V36c4.3 8.4 6.8 17.9 6.8 28s-2.5 19.6-6.8 28zm6.8-66v32.6c-.7-8.3-3.1-16.1-6.8-23.2V19c0-.8-.1-1.6-.3-2.4 4.1 1.2 7.1 5 7.1 9.4zm-7-7v15.9c-1.9-3.6-4.2-7-6.8-10.1v-8.5h4c.8 0 1.7.1 2.4.3.2.7.4 1.6.4 2.4zm-.4-2.7c-.8-.2-1.5-.3-2.4-.3h-3.8l3.8-3.8c1.1 1.1 1.9 2.5 2.4 4.1zm-2.6-4.3l-3.8 3.8V12c0-.8-.1-1.6-.3-2.4 1.6.5 3 1.3 4.1 2.4zm-4 0v4h-8.5c-3.1-2.6-6.5-4.8-10.1-6.8H109c.8 0 1.7.1 2.4.3.2.8.4 1.7.4 2.5zm-86.9 99.8c-1.5-1.3-3-2.6-4.4-4L64 64.2l43.5 43.5c-1.4 1.4-2.9 2.8-4.4 4H24.9v.1zm77.9.2c-3.2 2.6-6.6 4.8-10.3 6.8h-57c-3.7-1.9-7.1-4.2-10.3-6.8h77.6zm.3-95.8c1.5 1.3 3 2.6 4.4 4L64 63.8 20.5 20.3c1.4-1.4 2.9-2.8 4.4-4l78.2-.1zM25.2 16c3.2-2.6 6.6-4.8 10.3-6.8h57c3.7 1.9 7.1 4.2 10.3 6.8H25.2zm78.3.2h8l-3.8 3.8c-1.3-1.3-2.7-2.5-4.2-3.8zm-83.2 3.9l-3.8-3.8h8c-1.5 1.2-2.9 2.4-4.2 3.8zm-.2.2c-1.3 1.3-2.6 2.7-3.8 4.2v-8l3.8 3.8zm.2.2L63.8 64l-43.5 43.5c-1.4-1.4-2.8-2.9-4-4.4V24.9c1.2-1.6 2.6-3 4-4.4zm-.2 87.2l-3.8 3.8v-8c1.2 1.5 2.4 2.9 3.8 4.2zm.2.2c1.3 1.3 2.7 2.6 4.2 3.8h-8l3.8-3.8zm87.4 0l3.8 3.8h-8c1.5-1.2 2.9-2.4 4.2-3.8zm.2-.2c1.3-1.3 2.6-2.7 3.8-4.2v8l-3.8-3.8zm-.2-.2L64.2 64l43.5-43.5c1.4 1.4 2.8 2.9 4 4.4v78.2c-1.2 1.6-2.6 3-4 4.4zm.2-87.2l3.8-3.8v8c-1.2-1.5-2.4-2.9-3.8-4.2zM102 2.2c4.4 0 8.2 3 9.4 7-.8-.1-1.6-.2-2.4-.2H92.6c-7-3.7-14.9-6-23.2-6.8H102zM92 9H36c8.4-4.3 17.9-6.8 28-6.8S83.6 4.7 92 9zM26 2.2h32.6C50.3 3 42.4 5.3 35.4 9H19c-.8 0-1.6.1-2.4.3 1.2-4.1 5-7.1 9.4-7.1zm-9.4 7.4c.8-.2 1.6-.3 2.4-.3h15.9c-3.6 1.9-7 4.2-10.1 6.8h-8.5v-4c-.1-.9.1-1.8.3-2.5zm-.3 0c-.2.8-.3 1.6-.3 2.4v3.8L12.2 12c1.1-1.1 2.5-1.9 4.1-2.4zM12 12.2l3.8 3.8H12c-.8 0-1.6.1-2.4.3.5-1.6 1.3-3 2.4-4.1zm-2.4 4.4c.8-.2 1.6-.3 2.4-.3h4v8.5c-2.6 3.1-4.8 6.5-6.8 10.1V19c0-.8.2-1.7.4-2.4zm6.4 8.6v77.6c-2.6-3.2-4.8-6.6-6.8-10.3v-57c2-3.7 4.2-7.1 6.8-10.3zM2.2 26c0-4.4 3-8.2 7-9.4-.1.8-.2 1.6-.2 2.4v16.4c-3.7 7-6 14.9-6.8 23.2V26zM9 36v56c-4.3-8.4-6.8-17.9-6.8-28S4.7 44.4 9 36zm-6.8 66V69.4C3 77.7 5.3 85.6 9 92.6V109c0 .8.1 1.6.3 2.4-4.1-1.2-7.1-5-7.1-9.4zm7 7V93.1c1.9 3.6 4.2 7 6.8 10.1v8.5h-4c-.8 0-1.7-.1-2.4-.3-.2-.7-.4-1.6-.4-2.4zm2.8 6.8c-1.1-1.1-1.9-2.5-2.4-4.1.8.2 1.5.3 2.4.3h3.8l-3.8 3.8zm.2.2l3.8-3.8v3.8c0 .8.1 1.6.3 2.4-1.6-.5-3-1.3-4.1-2.4zm4 0v-4h8.5c3.1 2.6 6.5 4.8 10.1 6.8H19c-.8 0-1.7-.1-2.4-.3-.2-.8-.4-1.7-.4-2.5zm9.8 9.8c-4.4 0-8.2-3-9.4-7 .8.2 1.5.3 2.4.3h16.4c7 3.7 14.9 6 23.2 6.8H26v-.1zm10-6.8h56c-8.4 4.3-17.9 6.8-28 6.8s-19.6-2.5-28-6.8zm66 6.8H69.4c8.3-.7 16.1-3.1 23.2-6.8H109c.8 0 1.6-.1 2.4-.3-1.2 4.1-5 7.1-9.4 7.1zm9.4-7.4c-.8.2-1.6.3-2.4.3H93.1c3.6-1.9 7-4.2 10.1-6.8h8.5v4c.1.9-.1 1.8-.3 2.5zm.3 0c.2-.8.3-1.5.3-2.4v-3.8l3.8 3.8c-1.1 1.1-2.5 1.9-4.1 2.4zm.5-6.4h3.8c.8 0 1.6-.1 2.4-.3-.5 1.6-1.3 3-2.4 4.1l-3.8-3.8z"/></g><path class="st2" d="M7.8 38.7c1.1 0 2-.9 2-2V35c0-1.1-.9-2-2-2s-2 .9-2 2v1.7c.1 1.1.9 2 2 2zm110.8-22H73.5C72.1 8.9 65.3 3 57.2 3H32.4c-8.2 0-14.9 5.9-16.3 13.7H9c-1.7.2-3.1 1.7-3.1 3.5v7.6c0 1.1.9 2 2 2s2-.9 2-2v-7.2H16c.6 8.6 7.7 15.5 16.5 15.5h20.2l6.5 7.2c.4.4.9.7 1.5.7.2 0 .5 0 .7-.1.8-.3 1.3-1 1.3-1.8v-6.8c6.3-2.1 10.8-8 11.2-14.6h44.5V80h-9.3v-5c0-7.2-5.8-13-13-13H76.4c-7.2 0-13 5.8-13 13v5h-3.5c-1.1 0-2 .9-2 2s.9 2 2 2h58.8c1.9 0 3.5-1.6 3.5-3.5V20.2c-.1-1.9-1.6-3.5-3.6-3.5zM60 31.9c-.9.2-1.5 1-1.5 1.9V37l-3.6-4.1c-.4-.4-.9-.7-1.5-.7h-21c-7 0-12.6-5.7-12.6-12.6 0-7 5.7-12.6 12.6-12.6h24.8c6.6 0 12 5 12.6 11.4v.3c0 .2 0 .4.1.5v.4c-.1 5.8-4.2 10.9-9.9 12.3zM67.2 75c0-5 4.1-9.1 9.1-9.1h19.6c5 0 9.1 4.1 9.1 9.1v5H67.2v-5z"/><path class="st2" d="M72.7 46.5c.8 6.7 6.5 12 13.4 12 7.5 0 13.5-6.1 13.5-13.5s-6.1-13.5-13.5-13.5c-7.5 0-13.5 6.1-13.5 13.5v1c0 .1 0 .3.1.5zm13.4 8.1c-4.3 0-8-2.9-9.2-6.8 4.3-.4 7.6-2 9.9-4.1 1.4 1.7 3.9 3.7 8.5 4.1-1.2 3.9-4.9 6.8-9.2 6.8zm9.6-10.7c-3.9-.4-5.6-2.2-6.2-3.2.9-1.3 1.5-2.6 2-3.8 2.3 1.6 3.9 4.1 4.2 7zm-9.6-8.6c.6 0 1.1.1 1.7.2-.3.9-.9 2.3-2.1 3.7-1.7 2.2-4.5 4.3-9.2 4.7.6-4.8 4.7-8.6 9.6-8.6zm-34.9 67.4H28c-8.3 0-15.1 6.8-15.1 15.1v5.3c0 1.1.9 2 2 2s2-.9 2-2v-5.3c0-6.2 5-11.2 11.2-11.2h23.2c6.2 0 11.2 5 11.2 11.2v5.3c0 1.1.9 2 2 2s2-.9 2-2v-5.3c-.2-8.4-7-15.1-15.3-15.1zm-27.3-18c0 8.6 7 15.7 15.7 15.7s15.7-7 15.7-15.7S48.3 69 39.6 69c-7 0-12.9 4.6-14.9 10.9H9.8V50.4c0-1.1-.9-2-2-2s-2 .9-2 2v30c0 1.9 1.6 3.5 3.5 3.5H24c0 .3-.1.6-.1.8zM39.6 73c6.5 0 11.8 5.3 11.8 11.8s-5.3 11.8-11.8 11.8-11.8-5.3-11.8-11.8S33.1 73 39.6 73z"/></svg>