<svg viewBox="0 0 64 64" xmlns="http://www.w3.org/2000/svg"><g fill="#606060"><path d="M59.1 32h-2.6v18h-49V20.3c0-.7.6-1.3 1.3-1.3h11.6v-2.6H8.7c-2.2 0-3.9 1.8-3.9 3.9V50H1v4c0 3.6 2.9 6.5 6.5 6.5h49c3.6 0 6.5-2.9 6.5-6.5v-4h-3.9zm1.3 20.6V54c0 2.2-1.8 3.9-3.9 3.9h-49c-2.2 0-3.9-1.8-3.9-3.9v-1.3h56.8z"/><path d="M29.4 54h6.5v2.6h-6.5zM57.9 3.6h-31c-2.8 0-5.1 2.3-5.1 5.1v13h2.6v-13c0-1.4 1.1-2.6 2.6-2.6h31c1.4 0 2.6 1.1 2.6 2.6v16.8c0 1.4-1.1 2.6-2.6 2.6H46.9l-9.7 9.8v-9.7h-6.5v2.6h3.9v7.1c0 1 .6 2 1.6 2.4.3.1.6.2 1 .2.7 0 1.3-.3 1.8-.8l9-9h9.8c2.8 0 5.1-2.3 5.1-5.1V8.7c.1-2.8-2.2-5.1-5-5.1zM34.5 48.8v-3.3c0-4.9-8.9-7-11.6-7s-11.6 2.1-11.6 7v3.3h2.6v-3.3c0-2.3 6.1-4.4 9-4.4s9 2.1 9 4.4v3.3z"/><path d="M22.9 22.9c-3.6 0-6.5 2.9-6.5 6.5v1.3c0 3.6 2.9 6.5 6.5 6.5s6.5-2.9 6.5-6.5v-1.3c0-3.6-2.9-6.5-6.5-6.5zm3.9 7.8c0 2.2-1.8 3.9-3.9 3.9-2.2 0-3.9-1.7-3.9-3.9v-1.3c0-2.2 1.7-3.9 3.9-3.9s3.9 1.7 3.9 3.9zm9.1-14.2h2.6v2.6h-2.6zm5.1 0h2.6v2.6H41zm5.2 0h2.6v2.6h-2.6z"/></g></svg>