<?xml version="1.0" encoding="utf-8"?>
<!-- Generator: Adobe Illustrator 25.4.1, SVG Export Plug-In . SVG Version: 6.00 Build 0)  -->
<svg version="1.1" id="Layer_1" xmlns="http://www.w3.org/2000/svg" xmlns:xlink="http://www.w3.org/1999/xlink" x="0px" y="0px"
	 viewBox="0 0 148 58" enable-background="new 0 0 148 58" xml:space="preserve">
<g>
	<path fill="#8E1B18" d="M16.3,22.2c-1-0.8-2.2-1.2-3.6-1.2c-2.3,0-3.8,0.8-4.8,2.5c-0.1,0.3-0.3,0.7-0.4,1.2
		c-0.1,0.5-0.2,1.1-0.3,1.7c-0.1,0.5-0.1,0.9-0.1,1.4c0,0.5,0,1,0,1.4c0,0.2,0,0.4,0,0.5c0,0.1,0,0.3,0,0.5h5.6
		c1.4,0,2.6-0.4,3.6-1.2c0.4-0.3,0.6-0.6,0.9-1c0.4-0.7,0.7-1.5,0.7-2.4c0-0.9-0.2-1.7-0.7-2.4C17,22.8,16.7,22.5,16.3,22.2z"/>
	<path fill="#8E1B18" d="M18.1,43.8c-0.4,0.3-0.6,0.6-0.9,1c-0.4,0.7-0.7,1.5-0.7,2.4c0,0.9,0.2,1.7,0.7,2.4c0.2,0.4,0.5,0.7,0.9,1
		c1,0.8,2.2,1.2,3.6,1.2c2.3,0,3.8-0.8,4.8-2.5c0.1-0.3,0.3-0.7,0.4-1.2c0.1-0.5,0.2-1.1,0.3-1.7c0.1-0.5,0.1-0.9,0.1-1.4
		c0-0.5,0-1,0-1.4c0-0.2,0-0.4,0-0.5c0-0.1,0-0.3,0-0.5h-5.6C20.3,42.6,19.1,43,18.1,43.8z"/>
	<path fill="#8E1B18" d="M0.2,11.7V58h17h17V11.7L17.2,0L0.2,11.7z M19.7,25.6c0,1.8-0.7,3.3-2.1,4.4c-0.1,0.1-0.3,0.2-0.4,0.3
		c-1.3,0.9-2.8,1.3-4.5,1.3H7.2c0.1,0.7,0.2,1.4,0.3,1.8c0.1,0.5,0.3,0.9,0.4,1.2c0.9,1.7,2.5,2.5,4.8,2.5c1.4,0,2.7-0.5,3.9-1.4
		l0,0c0.2-0.2,0.4-0.3,0.6-0.5c1.4-0.9,2.9-1.4,4.5-1.4c1.4,0,2.7,0.3,3.9,0.9c0.6,0.3,1.1,0.7,1.5,1.1c0.4,0.4,0.8,0.9,1.1,1.4
		c0.2,0.3,0.3,0.7,0.5,1.2c0.1,0.5,0.2,1,0.3,1.5c0.1,0.6,0.1,1.2,0.2,1.8c0,0.6,0.1,1.2,0.1,1.8c0,0.6,0,1.2-0.1,1.8
		c0,0.6-0.1,1.1-0.2,1.7c-0.2,1.1-0.4,2-0.7,2.6c-0.5,1-1.4,1.8-2.6,2.5c-1.2,0.6-2.5,0.9-3.9,0.9c-1.7,0-3.2-0.5-4.5-1.3
		c-0.1-0.1-0.3-0.2-0.4-0.3c-1.4-1.1-2.1-2.6-2.1-4.4c0-1.8,0.7-3.3,2.1-4.4c0.1-0.1,0.3-0.2,0.4-0.3c1.3-0.9,2.8-1.3,4.5-1.3h5.5
		c-0.1-0.7-0.2-1.4-0.3-1.8c-0.1-0.5-0.3-0.9-0.4-1.2c-0.9-1.7-2.5-2.5-4.8-2.5c-1.4,0-2.7,0.5-3.9,1.4l0,0
		c-0.2,0.2-0.4,0.3-0.6,0.5c-1.4,0.9-2.9,1.4-4.5,1.4c-1.4,0-2.7-0.3-3.9-0.9c-0.6-0.3-1.1-0.7-1.5-1.1c-0.4-0.4-0.8-0.9-1.1-1.4
		C6,35,5.9,34.6,5.8,34.1c-0.1-0.5-0.2-1-0.3-1.5c-0.1-0.6-0.1-1.2-0.2-1.8c0-0.6-0.1-1.2-0.1-1.8c0-0.6,0-1.2,0.1-1.8
		c0-0.6,0.1-1.1,0.2-1.7c0.2-1.1,0.4-2,0.7-2.6c0.5-1,1.4-1.8,2.6-2.5c1.2-0.6,2.5-0.9,3.9-0.9c1.7,0,3.2,0.5,4.5,1.3
		c0.1,0.1,0.3,0.2,0.4,0.3C19,22.3,19.7,23.8,19.7,25.6z"/>
	<path fill="#8E1B18" d="M45.6,23.4c-0.9,0-1.7,0.2-2.5,0.7c-0.7,0.4-1.3,1.1-1.7,1.8c-0.4,0.8-0.6,1.7-0.6,2.7
		c0,1.6,0.5,2.9,1.4,3.8c0.9,0.9,2.1,1.4,3.7,1.4c0.7,0,1.4-0.1,2.1-0.4c0.7-0.2,1.3-0.6,1.7-1l-0.6-1.2c-1,0.8-2.1,1.2-3.2,1.2
		c-1.1,0-1.9-0.3-2.5-0.9c-0.6-0.6-0.9-1.5-1-2.7h7.4v-0.6c0-1.5-0.4-2.7-1.1-3.6C48,23.9,46.9,23.4,45.6,23.4z M42.5,27.9
		c0.1-1,0.4-1.8,0.9-2.3c0.5-0.6,1.2-0.8,2.1-0.8c0.9,0,1.5,0.3,2,0.8c0.5,0.5,0.7,1.3,0.8,2.3H42.5z"/>
	<polygon fill="#8E1B18" points="52.9,33.8 56,29.8 59.1,33.8 61.1,33.8 57,28.6 60.9,23.7 58.9,23.7 56,27.4 53.1,23.7 51.1,23.7 
		55,28.6 50.8,33.8 	"/>
	<path fill="#8E1B18" d="M65.1,30.2V25H68v-1.3h-2.9v-3.1h-1.7v3.1h-2V25h2v5.3c0,1.1,0.3,2,0.9,2.6s1.5,1,2.7,1c0.4,0,0.7,0,1-0.1
		l0.1-1.3c-0.3,0-0.6,0.1-0.9,0.1C65.8,32.6,65.1,31.8,65.1,30.2z"/>
	<path fill="#8E1B18" d="M74.1,23.4c-0.9,0-1.7,0.2-2.5,0.7c-0.7,0.4-1.3,1.1-1.7,1.8c-0.4,0.8-0.6,1.7-0.6,2.7
		c0,1.6,0.5,2.9,1.4,3.8c0.9,0.9,2.1,1.4,3.7,1.4c0.7,0,1.4-0.1,2.1-0.4c0.7-0.2,1.3-0.6,1.7-1l-0.6-1.2c-1,0.8-2.1,1.2-3.2,1.2
		c-1.1,0-1.9-0.3-2.5-0.9C71.3,31,71,30.2,71,29h7.4v-0.6c0-1.5-0.4-2.7-1.1-3.6C76.4,23.9,75.4,23.4,74.1,23.4z M71,27.9
		c0.1-1,0.4-1.8,0.9-2.3c0.5-0.6,1.2-0.8,2.1-0.8c0.9,0,1.5,0.3,2,0.8c0.5,0.5,0.7,1.3,0.8,2.3H71z"/>
	<path fill="#8E1B18" d="M87.2,25.5c0.4,0.4,0.5,1.1,0.5,2v6.2h1.7v-6.3c0-2.7-1.2-4-3.6-4c-0.8,0-1.4,0.2-2,0.5
		c-0.6,0.3-1.1,0.8-1.4,1.4v-1.7h-1.7v10.1h1.7V28c0-1,0.3-1.7,0.8-2.3c0.6-0.6,1.3-0.8,2.2-0.8C86.3,24.9,86.9,25.1,87.2,25.5z"/>
	<path fill="#8E1B18" d="M97.7,32.2c-0.4,0.3-1,0.4-1.7,0.4c-0.7,0-1.3-0.1-1.9-0.3c-0.6-0.2-1.1-0.5-1.6-0.9l-0.6,1.2
		c1,0.9,2.3,1.3,4,1.3c1.2,0,2.2-0.3,2.9-0.8c0.7-0.5,1.1-1.2,1.1-2.1c0-0.7-0.2-1.3-0.7-1.7c-0.5-0.4-1.1-0.8-2.1-1l-1.7-0.4
		c-0.5-0.1-0.9-0.3-1.2-0.5c-0.2-0.2-0.4-0.6-0.4-1c0-0.5,0.2-0.9,0.6-1.1c0.4-0.3,0.9-0.4,1.6-0.4c1.1,0,2.1,0.4,3,1.2l0.6-1.2
		c-0.4-0.4-1-0.8-1.6-1c-0.6-0.2-1.3-0.3-2-0.3c-1.2,0-2.1,0.3-2.8,0.8c-0.7,0.6-1.1,1.3-1.1,2.2c0,0.7,0.2,1.3,0.7,1.7
		c0.5,0.5,1.1,0.8,2,1l1.7,0.4c0.6,0.1,1,0.3,1.3,0.6c0.3,0.2,0.4,0.6,0.4,1C98.3,31.6,98.1,31.9,97.7,32.2z"/>
	<rect x="102.3" y="19.3" fill="#8E1B18" width="2" height="1.9"/>
	<rect x="102.4" y="23.7" fill="#8E1B18" width="1.7" height="10.1"/>
	<path fill="#8E1B18" d="M108.9,33.3c0.7,0.4,1.6,0.6,2.5,0.6c1,0,1.8-0.2,2.5-0.6c0.7-0.4,1.3-1,1.7-1.8c0.4-0.8,0.6-1.7,0.6-2.8
		c0-1-0.2-2-0.6-2.8c-0.4-0.8-1-1.4-1.7-1.8c-0.7-0.4-1.6-0.6-2.5-0.6c-1,0-1.8,0.2-2.5,0.6c-0.7,0.4-1.3,1-1.7,1.8
		c-0.4,0.8-0.6,1.7-0.6,2.8c0,1,0.2,2,0.6,2.8C107.6,32.2,108.2,32.8,108.9,33.3z M109.1,25.8c0.5-0.7,1.3-1,2.3-1
		c1,0,1.7,0.3,2.3,1c0.5,0.7,0.8,1.6,0.8,2.8c0,1.3-0.3,2.2-0.8,2.9c-0.5,0.7-1.3,1-2.3,1s-1.8-0.3-2.3-1c-0.5-0.7-0.8-1.6-0.8-2.9
		C108.3,27.5,108.6,26.5,109.1,25.8z"/>
	<path fill="#8E1B18" d="M123.4,24.9c0.8,0,1.4,0.2,1.7,0.6c0.4,0.4,0.5,1.1,0.5,2v6.2h1.7v-6.3c0-2.7-1.2-4-3.6-4
		c-0.8,0-1.4,0.2-2,0.5c-0.6,0.3-1.1,0.8-1.4,1.4v-1.7h-1.7v10.1h1.7V28c0-1,0.3-1.7,0.8-2.3C121.7,25.1,122.5,24.9,123.4,24.9z"/>
	<path fill="#8E1B18" d="M45.5,43c-0.7,0-1.4,0.1-2.1,0.3c-0.7,0.2-1.4,0.5-1.9,0.9l0.6,1.2c1.1-0.7,2.3-1.1,3.4-1.1
		c0.8,0,1.3,0.2,1.7,0.6c0.3,0.4,0.5,1,0.5,1.8v0.7h-0.5c-1.6,0-2.8,0.1-3.7,0.3c-0.9,0.2-1.5,0.5-1.9,0.9c-0.4,0.4-0.6,1-0.6,1.8
		c0,0.6,0.2,1.1,0.5,1.5c0.3,0.5,0.7,0.8,1.3,1.1c0.5,0.3,1.1,0.4,1.8,0.4c0.7,0,1.3-0.2,1.9-0.5c0.5-0.3,0.9-0.8,1.2-1.4v1.7h1.6
		v-6.3c0-1.3-0.3-2.3-0.9-3C47.8,43.3,46.8,43,45.5,43z M47.7,49.1c0,0.9-0.3,1.6-0.8,2.2c-0.5,0.6-1.2,0.8-2,0.8
		c-0.6,0-1.1-0.2-1.5-0.5c-0.4-0.4-0.6-0.8-0.6-1.3c0-0.5,0.1-0.8,0.4-1.1c0.3-0.2,0.7-0.4,1.4-0.5c0.6-0.1,1.6-0.2,2.8-0.2h0.4
		V49.1z"/>
	<path fill="#8E1B18" d="M57.3,43c-1.7,0.1-2.8,0.8-3.3,2v-1.8h-1.6v10.1h1.7v-5.7c0-0.8,0.2-1.5,0.7-2c0.5-0.6,1.2-0.9,2.2-1
		l1.1-0.1L57.9,43L57.3,43z"/>
	<path fill="#8E1B18" d="M63.9,44.4c1,0,1.9,0.4,2.9,1.2l0.6-1.2c-0.4-0.4-0.9-0.7-1.6-1c-0.6-0.2-1.3-0.4-2-0.4
		c-1,0-1.9,0.2-2.6,0.7c-0.7,0.4-1.3,1.1-1.7,1.8c-0.4,0.8-0.6,1.7-0.6,2.8c0,1,0.2,2,0.6,2.7c0.4,0.8,1,1.4,1.7,1.8
		c0.7,0.4,1.6,0.6,2.6,0.6c0.7,0,1.4-0.1,2-0.4c0.6-0.2,1.2-0.6,1.6-1l-0.6-1.2c-1,0.8-1.9,1.2-2.9,1.2c-1,0-1.8-0.3-2.4-1
		c-0.6-0.7-0.9-1.6-0.9-2.8c0-1.2,0.3-2.2,0.9-2.9C62,44.7,62.9,44.4,63.9,44.4z"/>
	<path fill="#8E1B18" d="M74.4,43c-0.8,0-1.4,0.2-2,0.5c-0.6,0.3-1,0.8-1.4,1.4v-6.1h-1.7v14.6H71v-5.8c0-1,0.3-1.7,0.8-2.3
		c0.6-0.6,1.3-0.8,2.2-0.8c0.8,0,1.4,0.2,1.7,0.6c0.4,0.4,0.5,1.1,0.5,2v6.2H78v-6.3C78,44.3,76.8,43,74.4,43z"/>
	<rect x="80.9" y="38.8" fill="#8E1B18" width="2" height="1.9"/>
	<rect x="81.1" y="43.2" fill="#8E1B18" width="1.7" height="10.1"/>
	<path fill="#8E1B18" d="M88.1,49.7v-5.2H91v-1.3h-2.9v-3.1h-1.7v3.1h-2v1.3h2v5.3c0,1.1,0.3,2,0.9,2.6c0.6,0.6,1.5,1,2.7,1
		c0.4,0,0.7,0,1-0.1l0.1-1.3c-0.3,0-0.6,0.1-0.9,0.1C88.8,52.1,88.1,51.3,88.1,49.7z"/>
	<path fill="#8E1B18" d="M97.1,43c-0.9,0-1.7,0.2-2.5,0.7c-0.7,0.4-1.3,1.1-1.7,1.8c-0.4,0.8-0.6,1.7-0.6,2.7c0,1.6,0.5,2.9,1.4,3.8
		c0.9,0.9,2.1,1.4,3.7,1.4c0.7,0,1.4-0.1,2.1-0.4c0.7-0.2,1.3-0.6,1.7-1l-0.6-1.2c-1,0.8-2.1,1.2-3.2,1.2c-1.1,0-1.9-0.3-2.5-0.9
		c-0.6-0.6-0.9-1.5-1-2.7h7.4v-0.6c0-1.5-0.4-2.7-1.1-3.6C99.4,43.4,98.4,43,97.1,43z M94,47.4c0.1-1,0.4-1.8,0.9-2.3
		c0.5-0.6,1.2-0.8,2.1-0.8c0.9,0,1.5,0.3,2,0.8c0.5,0.5,0.7,1.3,0.8,2.3H94z"/>
	<path fill="#8E1B18" d="M108.2,44.4c1,0,1.9,0.4,2.9,1.2l0.6-1.2c-0.4-0.4-0.9-0.7-1.6-1c-0.6-0.2-1.3-0.4-2-0.4
		c-1,0-1.9,0.2-2.6,0.7c-0.7,0.4-1.3,1.1-1.7,1.8c-0.4,0.8-0.6,1.7-0.6,2.8c0,1,0.2,2,0.6,2.7c0.4,0.8,1,1.4,1.7,1.8
		c0.7,0.4,1.6,0.6,2.6,0.6c0.7,0,1.4-0.1,2-0.4c0.6-0.2,1.2-0.6,1.6-1l-0.6-1.2c-1,0.8-1.9,1.2-2.9,1.2c-1,0-1.8-0.3-2.4-1
		c-0.6-0.7-0.9-1.6-0.9-2.8c0-1.2,0.3-2.2,0.9-2.9C106.4,44.7,107.2,44.4,108.2,44.4z"/>
	<path fill="#8E1B18" d="M115.9,49.7v-5.2h2.9v-1.3h-2.9v-3.1h-1.7v3.1h-2v1.3h2v5.3c0,1.1,0.3,2,0.9,2.6c0.6,0.6,1.5,1,2.7,1
		c0.4,0,0.7,0,1-0.1L119,52c-0.3,0-0.6,0.1-0.9,0.1C116.7,52.1,115.9,51.3,115.9,49.7z"/>
	<path fill="#8E1B18" d="M127.5,48.9c0,0.9-0.3,1.7-0.8,2.3c-0.5,0.6-1.2,0.9-2.1,0.9c-0.8,0-1.3-0.2-1.7-0.6
		c-0.4-0.4-0.5-1.1-0.5-2v-6.2h-1.7v6.2c0,1.3,0.3,2.3,0.9,3c0.6,0.7,1.5,1,2.7,1c0.7,0,1.4-0.2,1.9-0.5c0.6-0.3,1-0.8,1.3-1.4v1.7
		h1.6V43.2h-1.7V48.9z"/>
	<path fill="#8E1B18" d="M137.3,43c-1.7,0.1-2.8,0.8-3.3,2v-1.8h-1.6v10.1h1.7v-5.7c0-0.8,0.2-1.5,0.7-2s1.2-0.9,2.2-1l1.1-0.1
		l-0.1-1.4L137.3,43z"/>
	<path fill="#8E1B18" d="M147.8,47.9c0-1.5-0.4-2.7-1.1-3.6c-0.8-0.9-1.8-1.3-3.1-1.3c-0.9,0-1.7,0.2-2.5,0.7
		c-0.7,0.4-1.3,1.1-1.7,1.8c-0.4,0.8-0.6,1.7-0.6,2.7c0,1.6,0.5,2.9,1.4,3.8c0.9,0.9,2.1,1.4,3.7,1.4c0.7,0,1.4-0.1,2.1-0.4
		c0.7-0.2,1.3-0.6,1.7-1l-0.6-1.2c-1,0.8-2.1,1.2-3.2,1.2c-1.1,0-1.9-0.3-2.5-0.9c-0.6-0.6-0.9-1.5-1-2.7h7.4V47.9z M140.5,47.4
		c0.1-1,0.4-1.8,0.9-2.3c0.5-0.6,1.2-0.8,2.1-0.8c0.9,0,1.5,0.3,2,0.8c0.5,0.5,0.7,1.3,0.8,2.3H140.5z"/>
</g>
</svg>
