<?xml version="1.0" encoding="utf-8"?>
<!-- Generator: Adobe Illustrator 25.4.1, SVG Export Plug-In . SVG Version: 6.00 Build 0)  -->
<svg version="1.1" id="Layer_1" xmlns="http://www.w3.org/2000/svg" xmlns:xlink="http://www.w3.org/1999/xlink" x="0px" y="0px"
	 viewBox="0 0 150 58" style="enable-background:new 0 0 150 58;" xml:space="preserve">
<style type="text/css">
	.st0{fill:none;}
	.st1{fill:#5E1210;}
	.st2{fill:#8E1B18;}
</style>
<g>
	<g>
		<path class="st0" d="M17.9,25.6c0,0.9-0.2,1.7-0.7,2.4v2.4c0.1-0.1,0.3-0.2,0.4-0.3c1.4-1.1,2.1-2.6,2.1-4.4
			c0-1.8-0.7-3.3-2.1-4.4c-0.1-0.1-0.3-0.2-0.4-0.3v2.4C17.6,23.9,17.9,24.7,17.9,25.6z"/>
		<path class="st0" d="M8.8,20.4c-1.2,0.7-2.1,1.5-2.6,2.5c-0.3,0.6-0.5,1.5-0.7,2.6c-0.1,0.5-0.1,1.1-0.2,1.7
			c0,0.6-0.1,1.2-0.1,1.8c0,0.6,0,1.2,0.1,1.8c0,0.6,0.1,1.2,0.2,1.8c0.1,0.6,0.2,1.1,0.3,1.5c0.1,0.5,0.3,0.9,0.5,1.2
			c0.3,0.5,0.6,1,1.1,1.4c0.4,0.4,0.9,0.8,1.5,1.1c1.2,0.6,2.5,0.9,3.9,0.9c1.6,0,3.2-0.5,4.5-1.4v-2c-0.2,0.1-0.4,0.3-0.6,0.5l0,0
			c-1.2,1-2.5,1.4-3.9,1.4c-2.3,0-3.9-0.8-4.8-2.5c-0.2-0.3-0.3-0.7-0.4-1.2c-0.1-0.5-0.2-1.1-0.3-1.8h5.5c1.7,0,3.2-0.4,4.5-1.3V28
			c-0.2,0.4-0.5,0.7-0.9,1c-1,0.8-2.2,1.2-3.6,1.2H7.1c0-0.2,0-0.4,0-0.5c0-0.1,0-0.3,0-0.5c0-0.5,0-0.9,0-1.4c0-0.5,0-1,0.1-1.4
			c0.1-0.7,0.2-1.2,0.3-1.7c0.1-0.5,0.2-0.9,0.4-1.2c0.9-1.7,2.5-2.5,4.8-2.5c1.4,0,2.6,0.4,3.6,1.2c0.4,0.3,0.7,0.6,0.9,1v-2.4
			c-1.3-0.9-2.8-1.3-4.5-1.3C11.3,19.5,10,19.8,8.8,20.4z"/>
		<path class="st0" d="M17.8,36.9L17.8,36.9c1.2-1,2.5-1.4,3.9-1.4c2.3,0,3.9,0.8,4.8,2.5c0.2,0.3,0.3,0.7,0.4,1.2
			c0.1,0.5,0.2,1.1,0.3,1.8h-5.5c-1.7,0-3.2,0.4-4.5,1.3v2.4c0.2-0.4,0.5-0.7,0.9-1c1-0.8,2.2-1.2,3.6-1.2h5.6c0,0.2,0,0.4,0,0.5
			c0,0.1,0,0.3,0,0.5c0,0.5,0,0.9,0,1.4c0,0.5,0,1-0.1,1.4c-0.1,0.7-0.2,1.2-0.3,1.7c-0.1,0.5-0.2,0.9-0.4,1.2
			c-0.9,1.7-2.5,2.5-4.8,2.5c-1.4,0-2.6-0.4-3.6-1.2c-0.4-0.3-0.7-0.6-0.9-1v2.4c1.3,0.9,2.8,1.3,4.5,1.3c1.4,0,2.7-0.3,3.9-0.9
			c1.2-0.7,2.1-1.5,2.6-2.5c0.3-0.6,0.5-1.5,0.7-2.6c0.1-0.5,0.1-1.1,0.2-1.7c0-0.6,0.1-1.2,0.1-1.8c0-0.6,0-1.2-0.1-1.8
			c0-0.6-0.1-1.2-0.2-1.8c-0.1-0.6-0.2-1.1-0.3-1.5c-0.1-0.5-0.3-0.9-0.5-1.2c-0.3-0.5-0.6-1-1.1-1.4c-0.4-0.4-0.9-0.8-1.5-1.1
			c-1.2-0.6-2.5-0.9-3.9-0.9c-1.6,0-3.2,0.5-4.5,1.4v2C17.4,37.2,17.6,37.1,17.8,36.9z"/>
		<path class="st0" d="M16.5,47.2c0-0.9,0.2-1.7,0.7-2.4v-2.4c-0.1,0.1-0.3,0.2-0.4,0.3c-1.4,1.1-2.1,2.6-2.1,4.4
			c0,1.8,0.7,3.3,2.1,4.4c0.1,0.1,0.3,0.2,0.4,0.3v-2.4C16.8,48.9,16.5,48.1,16.5,47.2z"/>
		<g>
			<path class="st1" d="M17.2,49.6v-4.8c-0.4,0.7-0.7,1.5-0.7,2.4C16.5,48.1,16.8,48.9,17.2,49.6z"/>
			<path class="st1" d="M7.2,31.7c0.1,0.7,0.2,1.4,0.3,1.8c0.1,0.5,0.3,0.9,0.4,1.2c0.9,1.7,2.5,2.5,4.8,2.5c1.4,0,2.7-0.5,3.9-1.4
				l0,0c0.2-0.2,0.4-0.3,0.6-0.5v-5c-1.3,0.9-2.8,1.3-4.5,1.3H7.2z"/>
			<path class="st1" d="M17.2,0l-17,11.7V58h17v-6.1c-0.1-0.1-0.3-0.2-0.4-0.3c-1.4-1.1-2.1-2.6-2.1-4.4c0-1.8,0.7-3.3,2.1-4.4
				c0.1-0.1,0.3-0.2,0.4-0.3v-5c-1.4,0.9-2.9,1.4-4.5,1.4c-1.4,0-2.7-0.3-3.9-0.9c-0.6-0.3-1.1-0.7-1.5-1.1
				c-0.4-0.4-0.8-0.9-1.1-1.4c-0.2-0.3-0.3-0.7-0.5-1.2c-0.1-0.5-0.2-1-0.3-1.5c-0.1-0.6-0.1-1.2-0.2-1.8c0-0.6-0.1-1.2-0.1-1.8
				c0-0.6,0-1.2,0.1-1.8c0-0.6,0.1-1.1,0.2-1.7c0.2-1.1,0.4-2,0.7-2.6c0.5-1,1.4-1.8,2.6-2.5c1.2-0.6,2.5-0.9,3.9-0.9
				c1.7,0,3.2,0.5,4.5,1.3L17.2,0L17.2,0z"/>
			<path class="st1" d="M16.3,22.2c-1-0.8-2.2-1.2-3.6-1.2c-2.3,0-3.8,0.8-4.8,2.5c-0.1,0.3-0.3,0.7-0.4,1.2
				c-0.1,0.5-0.2,1.1-0.3,1.7c-0.1,0.5-0.1,0.9-0.1,1.4c0,0.5,0,1,0,1.4c0,0.2,0,0.4,0,0.5c0,0.1,0,0.3,0,0.5h5.6
				c1.4,0,2.6-0.4,3.6-1.2c0.4-0.3,0.6-0.6,0.9-1v-4.8C17,22.8,16.7,22.5,16.3,22.2z"/>
		</g>
		<g>
			<path class="st2" d="M18.1,50.5c1,0.8,2.2,1.2,3.6,1.2c2.3,0,3.8-0.8,4.8-2.5c0.1-0.3,0.3-0.7,0.4-1.2c0.1-0.5,0.2-1.1,0.3-1.7
				c0.1-0.5,0.1-0.9,0.1-1.4c0-0.5,0-1,0-1.4c0-0.2,0-0.4,0-0.5c0-0.1,0-0.3,0-0.5h-5.6c-1.4,0-2.6,0.4-3.6,1.2
				c-0.4,0.3-0.6,0.6-0.9,1v4.8C17.4,49.9,17.7,50.2,18.1,50.5z"/>
			<path class="st2" d="M27.2,41.1c-0.1-0.7-0.2-1.4-0.3-1.8c-0.1-0.5-0.3-0.9-0.4-1.2c-0.9-1.7-2.5-2.5-4.8-2.5
				c-1.4,0-2.7,0.5-3.9,1.4l0,0c-0.2,0.2-0.4,0.3-0.6,0.5v5c1.3-0.9,2.8-1.3,4.5-1.3H27.2z"/>
			<path class="st2" d="M17.2,0v20.8c0.1,0.1,0.3,0.2,0.4,0.3c1.4,1.1,2.1,2.6,2.1,4.4c0,1.8-0.7,3.3-2.1,4.4
				c-0.1,0.1-0.3,0.2-0.4,0.3v5c1.4-0.9,2.9-1.4,4.5-1.4c1.4,0,2.7,0.3,3.9,0.9c0.6,0.3,1.1,0.7,1.5,1.1c0.4,0.4,0.8,0.9,1.1,1.4
				c0.2,0.3,0.3,0.7,0.5,1.2c0.1,0.5,0.2,1,0.3,1.5c0.1,0.6,0.1,1.2,0.2,1.8c0,0.6,0.1,1.2,0.1,1.8c0,0.6,0,1.2-0.1,1.8
				c0,0.6-0.1,1.1-0.2,1.7c-0.2,1.1-0.4,2-0.7,2.6c-0.5,1-1.4,1.8-2.6,2.5c-1.2,0.6-2.5,0.9-3.9,0.9c-1.7,0-3.2-0.5-4.5-1.3V58h17
				V11.7L17.2,0z"/>
			<path class="st2" d="M17.2,23.2V28c0.4-0.7,0.7-1.5,0.7-2.4C17.9,24.7,17.6,23.9,17.2,23.2z"/>
		</g>
	</g>
	<g>
		<path class="st2" d="M51.9,29h-7.3c0.1,1.2,0.4,2.1,0.9,2.7c0.6,0.6,1.4,0.9,2.5,0.9c1.2,0,2.2-0.4,3.2-1.2l0.6,1.2
			c-0.4,0.4-1,0.7-1.7,1c-0.7,0.2-1.4,0.4-2.1,0.4c-1.6,0-2.8-0.5-3.7-1.4c-0.9-0.9-1.4-2.2-1.4-3.8c0-1,0.2-1.9,0.6-2.7
			c0.4-0.8,1-1.4,1.7-1.8c0.7-0.4,1.5-0.7,2.5-0.7c1.3,0,2.4,0.4,3.1,1.3c0.8,0.9,1.1,2.1,1.1,3.6V29z M45.6,25.6
			c-0.5,0.6-0.8,1.3-0.9,2.3h5.8c0-1-0.3-1.8-0.8-2.3c-0.5-0.5-1.2-0.8-2-0.8C46.8,24.8,46.1,25,45.6,25.6z"/>
		<path class="st2" d="M59,28.6l4.2,5.2h-2L58,29.8l-3.1,3.9h-2l4.2-5.2l-3.9-4.9h2l2.9,3.7l2.9-3.7h2L59,28.6z"/>
		<path class="st2" d="M70.2,32.5l-0.1,1.3c-0.3,0.1-0.7,0.1-1,0.1c-1.2,0-2.1-0.3-2.7-0.9s-0.9-1.5-0.9-2.6V25h-2v-1.3h2v-3.1h1.7
			v3.1H70V25h-2.8v5.2c0,1.6,0.7,2.4,2.2,2.4C69.6,32.6,69.9,32.5,70.2,32.5z"/>
		<path class="st2" d="M80.4,29H73c0.1,1.2,0.4,2.1,0.9,2.7c0.6,0.6,1.4,0.9,2.5,0.9c1.2,0,2.2-0.4,3.2-1.2l0.6,1.2
			c-0.4,0.4-1,0.7-1.7,1c-0.7,0.2-1.4,0.4-2.1,0.4c-1.6,0-2.8-0.5-3.7-1.4c-0.9-0.9-1.4-2.2-1.4-3.8c0-1,0.2-1.9,0.6-2.7
			c0.4-0.8,1-1.4,1.7-1.8c0.7-0.4,1.5-0.7,2.5-0.7c1.3,0,2.4,0.4,3.1,1.3c0.8,0.9,1.1,2.1,1.1,3.6V29z M74,25.6
			c-0.5,0.6-0.8,1.3-0.9,2.3h5.8c0-1-0.3-1.8-0.8-2.3c-0.5-0.5-1.2-0.8-2-0.8C75.2,24.8,74.5,25,74,25.6z"/>
		<path class="st2" d="M91.5,27.4v6.3h-1.7v-6.2c0-0.9-0.2-1.6-0.5-2c-0.4-0.4-0.9-0.6-1.7-0.6c-0.9,0-1.7,0.3-2.2,0.8
			c-0.6,0.6-0.8,1.3-0.8,2.3v5.8h-1.7V23.7h1.7v1.7c0.3-0.6,0.8-1.1,1.4-1.4c0.6-0.3,1.3-0.5,2-0.5C90.3,23.5,91.5,24.8,91.5,27.4z"
			/>
		<path class="st2" d="M93.9,32.6l0.6-1.2c0.5,0.4,1.1,0.7,1.6,0.9c0.6,0.2,1.2,0.3,1.9,0.3c0.7,0,1.3-0.1,1.7-0.4
			c0.4-0.3,0.6-0.6,0.6-1.1c0-0.4-0.1-0.7-0.4-0.9c-0.3-0.2-0.7-0.4-1.3-0.6l-1.7-0.4c-0.9-0.2-1.5-0.5-2-1c-0.5-0.5-0.7-1-0.7-1.7
			c0-0.9,0.4-1.6,1.1-2.2c0.7-0.6,1.6-0.8,2.8-0.8c0.7,0,1.4,0.1,2,0.3c0.6,0.2,1.2,0.6,1.6,1l-0.6,1.2c-0.9-0.8-1.9-1.2-3-1.2
			c-0.7,0-1.2,0.1-1.6,0.4c-0.4,0.3-0.6,0.6-0.6,1.1c0,0.4,0.1,0.7,0.4,1c0.2,0.2,0.6,0.4,1.2,0.5l1.7,0.4c0.9,0.2,1.6,0.6,2.1,1
			c0.5,0.4,0.7,1,0.7,1.7c0,0.9-0.4,1.6-1.1,2.1c-0.7,0.5-1.7,0.8-2.9,0.8C96.3,33.9,94.9,33.5,93.9,32.6z"/>
		<path class="st2" d="M104.3,19.4h2v1.9h-2V19.4z M104.4,33.8V23.7h1.7v10.1H104.4z"/>
		<path class="st2" d="M110.9,33.3c-0.7-0.4-1.3-1-1.7-1.8c-0.4-0.8-0.6-1.7-0.6-2.8c0-1,0.2-2,0.6-2.8c0.4-0.8,0.9-1.4,1.7-1.8
			c0.7-0.4,1.6-0.6,2.5-0.6c0.9,0,1.8,0.2,2.5,0.6c0.7,0.4,1.3,1,1.7,1.8c0.4,0.8,0.6,1.7,0.6,2.8c0,1-0.2,2-0.6,2.8
			c-0.4,0.8-1,1.4-1.7,1.8c-0.7,0.4-1.6,0.6-2.5,0.6C112.5,33.9,111.6,33.7,110.9,33.3z M115.7,31.5c0.5-0.7,0.8-1.6,0.8-2.9
			c0-1.2-0.3-2.2-0.8-2.8c-0.5-0.7-1.3-1-2.3-1c-1,0-1.7,0.3-2.3,1c-0.5,0.7-0.8,1.6-0.8,2.8c0,1.2,0.3,2.2,0.8,2.8
			c0.5,0.7,1.3,1,2.3,1S115.2,32.2,115.7,31.5z"/>
		<path class="st2" d="M129.4,27.4v6.3h-1.7v-6.2c0-0.9-0.2-1.6-0.5-2c-0.4-0.4-0.9-0.6-1.7-0.6c-0.9,0-1.7,0.3-2.2,0.8
			c-0.6,0.6-0.8,1.3-0.8,2.3v5.8h-1.7V23.7h1.7v1.7c0.3-0.6,0.8-1.1,1.4-1.4c0.6-0.3,1.3-0.5,2-0.5
			C128.2,23.5,129.4,24.8,129.4,27.4z"/>
		<path class="st2" d="M50.4,43.9c0.6,0.7,0.9,1.6,0.9,3v6.3h-1.6v-1.7c-0.3,0.6-0.7,1-1.2,1.4c-0.5,0.3-1.2,0.5-1.9,0.5
			c-0.6,0-1.2-0.1-1.8-0.4c-0.5-0.3-1-0.6-1.3-1.1c-0.3-0.5-0.5-1-0.5-1.5c0-0.8,0.2-1.3,0.6-1.8c0.4-0.4,1-0.7,1.9-0.9
			c0.9-0.2,2.1-0.3,3.7-0.3h0.5v-0.7c0-0.8-0.2-1.4-0.5-1.8c-0.3-0.4-0.9-0.6-1.7-0.6c-1.2,0-2.3,0.4-3.4,1.1l-0.6-1.2
			c0.5-0.4,1.2-0.7,1.9-0.9c0.7-0.2,1.4-0.3,2.1-0.3C48.9,43,49.8,43.3,50.4,43.9z M49,51.2c0.5-0.6,0.8-1.3,0.8-2.2v-0.6h-0.4
			c-1.2,0-2.1,0.1-2.8,0.2c-0.6,0.1-1.1,0.3-1.4,0.5c-0.3,0.2-0.4,0.6-0.4,1.1c0,0.5,0.2,1,0.6,1.3c0.4,0.4,0.9,0.5,1.5,0.5
			C47.8,52.1,48.4,51.8,49,51.2z"/>
		<path class="st2" d="M60.1,44.4L59,44.5c-1,0.1-1.8,0.4-2.2,1s-0.7,1.2-0.7,2v5.7h-1.7V43.2h1.6V45c0.6-1.2,1.7-1.8,3.3-2l0.6,0
			L60.1,44.4z"/>
		<path class="st2" d="M63.2,52.8c-0.7-0.4-1.3-1-1.7-1.8c-0.4-0.8-0.6-1.7-0.6-2.7c0-1,0.2-2,0.6-2.8c0.4-0.8,1-1.4,1.7-1.8
			c0.7-0.4,1.6-0.7,2.6-0.7c0.7,0,1.3,0.1,2,0.4c0.6,0.2,1.2,0.6,1.6,1l-0.6,1.2c-0.9-0.8-1.9-1.2-2.9-1.2c-1,0-1.8,0.3-2.4,1
			c-0.6,0.7-0.9,1.6-0.9,2.8c0,1.2,0.3,2.1,0.9,2.8c0.6,0.7,1.4,1,2.4,1c1,0,1.9-0.4,2.9-1.2l0.6,1.2c-0.4,0.4-1,0.7-1.6,0.9
			c-0.6,0.2-1.3,0.4-2,0.4C64.8,53.4,63.9,53.2,63.2,52.8z"/>
		<path class="st2" d="M80.1,46.9v6.3h-1.7V47c0-0.9-0.2-1.6-0.5-2c-0.4-0.4-0.9-0.6-1.7-0.6c-0.9,0-1.7,0.3-2.2,0.8
			c-0.6,0.6-0.8,1.3-0.8,2.3v5.8h-1.7V38.7h1.7v6.1c0.3-0.6,0.8-1.1,1.4-1.4c0.6-0.3,1.3-0.5,2-0.5C78.9,43,80.1,44.3,80.1,46.9z"/>
		<path class="st2" d="M83,38.8h2v1.9h-2V38.8z M83.1,53.3V43.2h1.7v10.1H83.1z"/>
		<path class="st2" d="M93.2,52l-0.1,1.3c-0.3,0.1-0.7,0.1-1,0.1c-1.2,0-2.1-0.3-2.7-0.9s-0.9-1.5-0.9-2.6v-5.3h-2v-1.3h2v-3.1h1.7
			v3.1H93v1.3h-2.8v5.2c0,1.6,0.7,2.4,2.2,2.4C92.6,52.1,92.9,52,93.2,52z"/>
		<path class="st2" d="M103.4,48.5H96c0.1,1.2,0.4,2.1,0.9,2.7c0.6,0.6,1.4,0.9,2.5,0.9c1.2,0,2.2-0.4,3.2-1.2l0.6,1.2
			c-0.4,0.4-1,0.7-1.7,1c-0.7,0.2-1.4,0.4-2.1,0.4c-1.6,0-2.8-0.5-3.7-1.4c-0.9-0.9-1.4-2.2-1.4-3.8c0-1,0.2-1.9,0.6-2.7
			c0.4-0.8,1-1.4,1.7-1.8c0.7-0.4,1.5-0.7,2.5-0.7c1.3,0,2.4,0.4,3.1,1.3c0.8,0.9,1.1,2.1,1.1,3.6V48.5z M97,45.1
			c-0.5,0.6-0.8,1.3-0.9,2.3h5.8c0-1-0.3-1.8-0.8-2.3c-0.5-0.5-1.2-0.8-2-0.8C98.2,44.3,97.5,44.5,97,45.1z"/>
		<path class="st2" d="M107.5,52.8c-0.7-0.4-1.3-1-1.7-1.8c-0.4-0.8-0.6-1.7-0.6-2.7c0-1,0.2-2,0.6-2.8c0.4-0.8,1-1.4,1.7-1.8
			c0.7-0.4,1.6-0.7,2.6-0.7c0.7,0,1.3,0.1,2,0.4c0.6,0.2,1.2,0.6,1.6,1l-0.6,1.2c-0.9-0.8-1.9-1.2-2.9-1.2c-1,0-1.8,0.3-2.4,1
			c-0.6,0.7-0.9,1.6-0.9,2.8c0,1.2,0.3,2.1,0.9,2.8c0.6,0.7,1.4,1,2.4,1c1,0,1.9-0.4,2.9-1.2l0.6,1.2c-0.4,0.4-1,0.7-1.6,0.9
			c-0.6,0.2-1.3,0.4-2,0.4C109.1,53.4,108.2,53.2,107.5,52.8z"/>
		<path class="st2" d="M121,52l-0.1,1.3c-0.3,0.1-0.7,0.1-1,0.1c-1.2,0-2.1-0.3-2.7-0.9s-0.9-1.5-0.9-2.6v-5.3h-2v-1.3h2v-3.1h1.7
			v3.1h2.8v1.3h-2.8v5.2c0,1.6,0.7,2.4,2.2,2.4C120.4,52.1,120.7,52,121,52z"/>
		<path class="st2" d="M131.2,43.2v10.1h-1.6v-1.7c-0.3,0.6-0.8,1.1-1.3,1.4c-0.6,0.3-1.2,0.5-1.9,0.5c-1.2,0-2.1-0.3-2.7-1
			c-0.6-0.7-0.9-1.7-0.9-3v-6.2h1.7v6.2c0,0.9,0.2,1.6,0.5,2c0.4,0.4,0.9,0.6,1.7,0.6c0.9,0,1.6-0.3,2.1-0.9
			c0.5-0.6,0.8-1.3,0.8-2.3v-5.7H131.2z"/>
		<path class="st2" d="M140,44.4l-1.1,0.1c-1,0.1-1.8,0.4-2.2,1s-0.7,1.2-0.7,2v5.7h-1.7V43.2h1.6V45c0.6-1.2,1.7-1.8,3.3-2l0.6,0
			L140,44.4z"/>
		<path class="st2" d="M149.8,48.5h-7.3c0.1,1.2,0.4,2.1,0.9,2.7c0.6,0.6,1.4,0.9,2.5,0.9c1.2,0,2.2-0.4,3.2-1.2l0.6,1.2
			c-0.4,0.4-1,0.7-1.7,1c-0.7,0.2-1.4,0.4-2.1,0.4c-1.6,0-2.8-0.5-3.7-1.4c-0.9-0.9-1.4-2.2-1.4-3.8c0-1,0.2-1.9,0.6-2.7
			c0.4-0.8,1-1.4,1.7-1.8c0.7-0.4,1.5-0.7,2.5-0.7c1.3,0,2.4,0.4,3.1,1.3c0.8,0.9,1.1,2.1,1.1,3.6V48.5z M143.4,45.1
			c-0.5,0.6-0.8,1.3-0.9,2.3h5.8c0-1-0.3-1.8-0.8-2.3c-0.5-0.5-1.2-0.8-2-0.8C144.7,44.3,144,44.5,143.4,45.1z"/>
	</g>
</g>
</svg>
