<?xml version="1.0" encoding="utf-8"?>
<!-- Generator: Adobe Illustrator 25.2.0, SVG Export Plug-In . SVG Version: 6.00 Build 0)  -->
<svg version="1.1" id="Layer_1" xmlns="http://www.w3.org/2000/svg" xmlns:xlink="http://www.w3.org/1999/xlink" x="0px" y="0px"
	 viewBox="0 0 128 128" style="enable-background:new 0 0 128 128;" xml:space="preserve">
<style type="text/css">
	.st0{display:none;}
	.st1{display:inline;opacity:0.1;enable-background:new    ;}
</style>
<g id="Layer_1_1_" class="st0">
	<path class="st1" d="M118.6,111.6c4.2-1.2,7.4-5,7.4-9.6V26c0-4.6-3.1-8.5-7.4-9.6c-0.5-1.7-1.3-3.1-2.5-4.3L128,0.2L127.8,0
		L116,11.9c-1.2-1.2-2.7-2-4.3-2.5c-1.2-4.2-5-7.4-9.6-7.4H26c-4.6,0-8.5,3.1-9.6,7.4c-1.7,0.5-3.1,1.3-4.3,2.5l-12-12l-0.2,0.2
		l12,11.9c-1.2,1.2-2,2.7-2.5,4.3C5.1,17.5,2,21.4,2,26v76c0,4.6,3.1,8.5,7.4,9.6c0.5,1.7,1.3,3.1,2.5,4.3L0,127.8l0.2,0.2L12,116.1
		c1.2,1.2,2.7,2,4.3,2.5c1.2,4.2,5,7.4,9.6,7.4h76c4.6,0,8.5-3.1,9.6-7.4c1.7-0.5,3.1-1.3,4.3-2.5l11.9,11.9l0.2-0.2L116.1,116
		C117.3,114.8,118.2,113.3,118.6,111.6z M118.4,111.4c-0.8,0.2-1.6,0.3-2.4,0.3h-4v-8.5c2.6-3.1,4.8-6.5,6.8-10.1V109
		C118.8,109.8,118.6,110.7,118.4,111.4z M112,102.8V25.2c2.6,3.2,4.8,6.6,6.8,10.3v57C116.8,96.2,114.6,99.6,112,102.8z M125.8,102
		c0,4.4-3,8.2-7,9.4c0.2-0.8,0.3-1.5,0.3-2.4V92.6c3.7-7,6-14.9,6.8-23.2V102H125.8z M119,92V36c4.3,8.4,6.8,17.9,6.8,28
		S123.3,83.6,119,92z M125.8,26v32.6c-0.7-8.3-3.1-16.1-6.8-23.2V19c0-0.8-0.1-1.6-0.3-2.4C122.8,17.8,125.8,21.6,125.8,26z
		 M118.8,19v15.9c-1.9-3.6-4.2-7-6.8-10.1v-8.5h4c0.8,0,1.7,0.1,2.4,0.3C118.6,17.3,118.8,18.2,118.8,19z M118.4,16.3
		c-0.8-0.2-1.5-0.3-2.4-0.3h-3.8l3.8-3.8C117.1,13.3,117.9,14.7,118.4,16.3z M115.8,12l-3.8,3.8V12c0-0.8-0.1-1.6-0.3-2.4
		C113.3,10.1,114.7,10.9,115.8,12z M111.8,12v4h-8.5c-3.1-2.6-6.5-4.8-10.1-6.8H109c0.8,0,1.7,0.1,2.4,0.3
		C111.6,10.3,111.8,11.2,111.8,12z M24.9,111.8c-1.5-1.3-3-2.6-4.4-4L64,64.2l43.5,43.5c-1.4,1.4-2.9,2.8-4.4,4H24.9V111.8z
		 M102.8,112c-3.2,2.6-6.6,4.8-10.3,6.8h-57c-3.7-1.9-7.1-4.2-10.3-6.8H102.8z M103.1,16.2c1.5,1.3,3,2.6,4.4,4L64,63.8L20.5,20.3
		c1.4-1.4,2.9-2.8,4.4-4L103.1,16.2L103.1,16.2z M25.2,16c3.2-2.6,6.6-4.8,10.3-6.8h57c3.7,1.9,7.1,4.2,10.3,6.8H25.2z M103.5,16.2
		h8l-3.8,3.8C106.4,18.7,105,17.5,103.5,16.2z M20.3,20.1l-3.8-3.8h8C23,17.5,21.6,18.7,20.3,20.1z M20.1,20.3
		c-1.3,1.3-2.6,2.7-3.8,4.2v-8L20.1,20.3z M20.3,20.5L63.8,64l-43.5,43.5c-1.4-1.4-2.8-2.9-4-4.4V24.9
		C17.5,23.3,18.9,21.9,20.3,20.5z M20.1,107.7l-3.8,3.8v-8C17.5,105,18.7,106.4,20.1,107.7z M20.3,107.9c1.3,1.3,2.7,2.6,4.2,3.8h-8
		L20.3,107.9z M107.7,107.9l3.8,3.8h-8C105,110.5,106.4,109.3,107.7,107.9z M107.9,107.7c1.3-1.3,2.6-2.7,3.8-4.2v8L107.9,107.7z
		 M107.7,107.5L64.2,64l43.5-43.5c1.4,1.4,2.8,2.9,4,4.4v78.2C110.5,104.7,109.1,106.1,107.7,107.5z M107.9,20.3l3.8-3.8v8
		C110.5,23,109.3,21.6,107.9,20.3z M102,2.2c4.4,0,8.2,3,9.4,7C110.6,9.1,109.8,9,109,9H92.6c-7-3.7-14.9-6-23.2-6.8
		C69.4,2.2,102,2.2,102,2.2z M92,9H36c8.4-4.3,17.9-6.8,28-6.8S83.6,4.7,92,9z M26,2.2h32.6C50.3,3,42.4,5.3,35.4,9H19
		c-0.8,0-1.6,0.1-2.4,0.3C17.8,5.2,21.6,2.2,26,2.2z M16.6,9.6c0.8-0.2,1.6-0.3,2.4-0.3h15.9c-3.6,1.9-7,4.2-10.1,6.8h-8.5v-4
		C16.2,11.2,16.4,10.3,16.6,9.6z M16.3,9.6C16.1,10.4,16,11.2,16,12v3.8L12.2,12C13.3,10.9,14.7,10.1,16.3,9.6z M12,12.2l3.8,3.8H12
		c-0.8,0-1.6,0.1-2.4,0.3C10.1,14.7,10.9,13.3,12,12.2z M9.6,16.6c0.8-0.2,1.6-0.3,2.4-0.3h4v8.5c-2.6,3.1-4.8,6.5-6.8,10.1V19
		C9.2,18.2,9.4,17.3,9.6,16.6z M16,25.2v77.6c-2.6-3.2-4.8-6.6-6.8-10.3v-57C11.2,31.8,13.4,28.4,16,25.2z M2.2,26
		c0-4.4,3-8.2,7-9.4C9.1,17.4,9,18.2,9,19v16.4c-3.7,7-6,14.9-6.8,23.2C2.2,58.6,2.2,26,2.2,26z M9,36v56c-4.3-8.4-6.8-17.9-6.8-28
		S4.7,44.4,9,36z M2.2,102V69.4C3,77.7,5.3,85.6,9,92.6V109c0,0.8,0.1,1.6,0.3,2.4C5.2,110.2,2.2,106.4,2.2,102z M9.2,109V93.1
		c1.9,3.6,4.2,7,6.8,10.1v8.5h-4c-0.8,0-1.7-0.1-2.4-0.3C9.4,110.7,9.2,109.8,9.2,109z M12,115.8c-1.1-1.1-1.9-2.5-2.4-4.1
		c0.8,0.2,1.5,0.3,2.4,0.3h3.8L12,115.8z M12.2,116l3.8-3.8v3.8c0,0.8,0.1,1.6,0.3,2.4C14.7,117.9,13.3,117.1,12.2,116z M16.2,116
		v-4h8.5c3.1,2.6,6.5,4.8,10.1,6.8H19c-0.8,0-1.7-0.1-2.4-0.3C16.4,117.7,16.2,116.8,16.2,116z M26,125.8c-4.4,0-8.2-3-9.4-7
		c0.8,0.2,1.5,0.3,2.4,0.3h16.4c7,3.7,14.9,6,23.2,6.8H26V125.8z M36,119h56c-8.4,4.3-17.9,6.8-28,6.8S44.4,123.3,36,119z
		 M102,125.8H69.4c8.3-0.7,16.1-3.1,23.2-6.8H109c0.8,0,1.6-0.1,2.4-0.3C110.2,122.8,106.4,125.8,102,125.8z M111.4,118.4
		c-0.8,0.2-1.6,0.3-2.4,0.3H93.1c3.6-1.9,7-4.2,10.1-6.8h8.5v4C111.8,116.8,111.6,117.7,111.4,118.4z M111.7,118.4
		c0.2-0.8,0.3-1.5,0.3-2.4v-3.8l3.8,3.8C114.7,117.1,113.3,117.9,111.7,118.4z M112.2,112h3.8c0.8,0,1.6-0.1,2.4-0.3
		c-0.5,1.6-1.3,3-2.4,4.1L112.2,112z"/>
</g>
<g>
	<polygon points="48.8,12.2 48.8,35.2 53.2,35.2 53.2,16.6 121.6,16.6 121.6,103.2 53.2,103.2 53.2,61.2 48.8,61.2 48.8,107.6 
		126,107.6 126,12.2 	"/>
	<path d="M27.6,37.4c7.1,0,12.6-5.9,12.6-13.3v-3.7C40.2,12.8,34.6,7,27.6,7S15,12.8,15,20.3V24C15,31.5,20.5,37.4,27.6,37.4z
		 M19.4,20.3c0-5,3.6-9,8.2-9s8.2,3.9,8.2,9V24c0,5-3.6,9-8.2,9s-8.2-3.9-8.2-9V20.3z"/>
	<path d="M68.8,43v-2.2H17.2C6.4,40.8,2,46,2,58.6v18.2c0,7.8,3.8,12.6,10,12.6h0.4V121h4.4V58.6h-4.4V85H12c-4.9,0-5.6-5.1-5.6-8.2
		V58.6c0-9.1,1.6-13.4,10.8-13.4h47.1c-0.6,4.1-3.2,6-8.1,6H38.4V121h4.4V55.6h13.4C64.2,55.6,68.8,51,68.8,43z"/>
	<rect x="25.4" y="79.4" width="4.4" height="41.6"/>
	<path d="M69.6,59v10.6c-5.9,1-10.4,6.2-10.4,12.4c0,6.9,5.6,12.6,12.6,12.6c6.9,0,12.6-5.6,12.6-12.6c0-6.2-4.5-11.3-10.4-12.4
		v-6.2h26.8v6H90.4v25.2h25.2V69.4h-10.4V59H89.6v-6h14.8L87.4,25.9L70.5,53h14.8v6H69.6z M80,82c0,4.5-3.7,8.2-8.2,8.2
		s-8.2-3.7-8.2-8.2c0-4.5,3.7-8.2,8.2-8.2S80,77.5,80,82z M111.2,90.2H94.8V73.8h16.4V90.2z M87.4,34.1l9.1,14.5H78.3L87.4,34.1z"/>
</g>
</svg>
