<?xml version="1.0" encoding="utf-8"?>
<!-- Generator: Adobe Illustrator 25.0.1, SVG Export Plug-In . SVG Version: 6.00 Build 0)  -->
<svg version="1.1" id="Layer_1" xmlns="http://www.w3.org/2000/svg" xmlns:xlink="http://www.w3.org/1999/xlink" x="0px" y="0px"
	 viewBox="0 0 128 128" style="enable-background:new 0 0 128 128;" xml:space="preserve">
<style type="text/css">
	.st0{display:none;}
	.st1{display:inline;opacity:0.1;enable-background:new    ;}
</style>
<g id="Layer_1_1_" class="st0">
	<path class="st1" d="M118.6,111.6c4.2-1.2,7.4-5,7.4-9.6V26c0-4.6-3.1-8.5-7.4-9.6c-0.5-1.7-1.3-3.1-2.5-4.3L128,0.2L127.8,0
		L116,11.9c-1.2-1.2-2.7-2-4.3-2.5c-1.2-4.2-5-7.4-9.6-7.4H26c-4.6,0-8.5,3.1-9.6,7.4c-1.7,0.5-3.1,1.3-4.3,2.5l-12-12l-0.2,0.2
		l12,11.9c-1.2,1.2-2,2.7-2.5,4.3C5.1,17.5,2,21.4,2,26v76c0,4.6,3.1,8.5,7.4,9.6c0.5,1.7,1.3,3.1,2.5,4.3L0,127.8l0.2,0.2L12,116.1
		c1.2,1.2,2.7,2,4.3,2.5c1.2,4.2,5,7.4,9.6,7.4h76c4.6,0,8.5-3.1,9.6-7.4c1.7-0.5,3.1-1.3,4.3-2.5l11.9,11.9l0.2-0.2L116.1,116
		C117.3,114.8,118.2,113.3,118.6,111.6z M118.4,111.4c-0.8,0.2-1.6,0.3-2.4,0.3h-4v-8.5c2.6-3.1,4.8-6.5,6.8-10.1V109
		C118.8,109.8,118.6,110.7,118.4,111.4z M112,102.8V25.2c2.6,3.2,4.8,6.6,6.8,10.3v57C116.8,96.2,114.6,99.6,112,102.8z M125.8,102
		c0,4.4-3,8.2-7,9.4c0.2-0.8,0.3-1.5,0.3-2.4V92.6c3.7-7,6-14.9,6.8-23.2V102H125.8z M119,92V36c4.3,8.4,6.8,17.9,6.8,28
		S123.3,83.6,119,92z M125.8,26v32.6c-0.7-8.3-3.1-16.1-6.8-23.2V19c0-0.8-0.1-1.6-0.3-2.4C122.8,17.8,125.8,21.6,125.8,26z
		 M118.8,19v15.9c-1.9-3.6-4.2-7-6.8-10.1v-8.5h4c0.8,0,1.7,0.1,2.4,0.3C118.6,17.3,118.8,18.2,118.8,19z M118.4,16.3
		c-0.8-0.2-1.5-0.3-2.4-0.3h-3.8l3.8-3.8C117.1,13.3,117.9,14.7,118.4,16.3z M115.8,12l-3.8,3.8V12c0-0.8-0.1-1.6-0.3-2.4
		C113.3,10.1,114.7,10.9,115.8,12z M111.8,12v4h-8.5c-3.1-2.6-6.5-4.8-10.1-6.8H109c0.8,0,1.7,0.1,2.4,0.3
		C111.6,10.3,111.8,11.2,111.8,12z M24.9,111.8c-1.5-1.3-3-2.6-4.4-4L64,64.2l43.5,43.5c-1.4,1.4-2.9,2.8-4.4,4H24.9V111.8z
		 M102.8,112c-3.2,2.6-6.6,4.8-10.3,6.8h-57c-3.7-1.9-7.1-4.2-10.3-6.8H102.8z M103.1,16.2c1.5,1.3,3,2.6,4.4,4L64,63.8L20.5,20.3
		c1.4-1.4,2.9-2.8,4.4-4L103.1,16.2L103.1,16.2z M25.2,16c3.2-2.6,6.6-4.8,10.3-6.8h57c3.7,1.9,7.1,4.2,10.3,6.8H25.2z M103.5,16.2
		h8l-3.8,3.8C106.4,18.7,105,17.5,103.5,16.2z M20.3,20.1l-3.8-3.8h8C23,17.5,21.6,18.7,20.3,20.1z M20.1,20.3
		c-1.3,1.3-2.6,2.7-3.8,4.2v-8L20.1,20.3z M20.3,20.5L63.8,64l-43.5,43.5c-1.4-1.4-2.8-2.9-4-4.4V24.9
		C17.5,23.3,18.9,21.9,20.3,20.5z M20.1,107.7l-3.8,3.8v-8C17.5,105,18.7,106.4,20.1,107.7z M20.3,107.9c1.3,1.3,2.7,2.6,4.2,3.8h-8
		L20.3,107.9z M107.7,107.9l3.8,3.8h-8C105,110.5,106.4,109.3,107.7,107.9z M107.9,107.7c1.3-1.3,2.6-2.7,3.8-4.2v8L107.9,107.7z
		 M107.7,107.5L64.2,64l43.5-43.5c1.4,1.4,2.8,2.9,4,4.4v78.2C110.5,104.7,109.1,106.1,107.7,107.5z M107.9,20.3l3.8-3.8v8
		C110.5,23,109.3,21.6,107.9,20.3z M102,2.2c4.4,0,8.2,3,9.4,7C110.6,9.1,109.8,9,109,9H92.6c-7-3.7-14.9-6-23.2-6.8
		C69.4,2.2,102,2.2,102,2.2z M92,9H36c8.4-4.3,17.9-6.8,28-6.8S83.6,4.7,92,9z M26,2.2h32.6C50.3,3,42.4,5.3,35.4,9H19
		c-0.8,0-1.6,0.1-2.4,0.3C17.8,5.2,21.6,2.2,26,2.2z M16.6,9.6c0.8-0.2,1.6-0.3,2.4-0.3h15.9c-3.6,1.9-7,4.2-10.1,6.8h-8.5v-4
		C16.2,11.2,16.4,10.3,16.6,9.6z M16.3,9.6C16.1,10.4,16,11.2,16,12v3.8L12.2,12C13.3,10.9,14.7,10.1,16.3,9.6z M12,12.2l3.8,3.8H12
		c-0.8,0-1.6,0.1-2.4,0.3C10.1,14.7,10.9,13.3,12,12.2z M9.6,16.6c0.8-0.2,1.6-0.3,2.4-0.3h4v8.5c-2.6,3.1-4.8,6.5-6.8,10.1V19
		C9.2,18.2,9.4,17.3,9.6,16.6z M16,25.2v77.6c-2.6-3.2-4.8-6.6-6.8-10.3v-57C11.2,31.8,13.4,28.4,16,25.2z M2.2,26
		c0-4.4,3-8.2,7-9.4C9.1,17.4,9,18.2,9,19v16.4c-3.7,7-6,14.9-6.8,23.2C2.2,58.6,2.2,26,2.2,26z M9,36v56c-4.3-8.4-6.8-17.9-6.8-28
		S4.7,44.4,9,36z M2.2,102V69.4C3,77.7,5.3,85.6,9,92.6V109c0,0.8,0.1,1.6,0.3,2.4C5.2,110.2,2.2,106.4,2.2,102z M9.2,109V93.1
		c1.9,3.6,4.2,7,6.8,10.1v8.5h-4c-0.8,0-1.7-0.1-2.4-0.3C9.4,110.7,9.2,109.8,9.2,109z M12,115.8c-1.1-1.1-1.9-2.5-2.4-4.1
		c0.8,0.2,1.5,0.3,2.4,0.3h3.8L12,115.8z M12.2,116l3.8-3.8v3.8c0,0.8,0.1,1.6,0.3,2.4C14.7,117.9,13.3,117.1,12.2,116z M16.2,116
		v-4h8.5c3.1,2.6,6.5,4.8,10.1,6.8H19c-0.8,0-1.7-0.1-2.4-0.3C16.4,117.7,16.2,116.8,16.2,116z M26,125.8c-4.4,0-8.2-3-9.4-7
		c0.8,0.2,1.5,0.3,2.4,0.3h16.4c7,3.7,14.9,6,23.2,6.8H26V125.8z M36,119h56c-8.4,4.3-17.9,6.8-28,6.8S44.4,123.3,36,119z
		 M102,125.8H69.4c8.3-0.7,16.1-3.1,23.2-6.8H109c0.8,0,1.6-0.1,2.4-0.3C110.2,122.8,106.4,125.8,102,125.8z M111.4,118.4
		c-0.8,0.2-1.6,0.3-2.4,0.3H93.1c3.6-1.9,7-4.2,10.1-6.8h8.5v4C111.8,116.8,111.6,117.7,111.4,118.4z M111.7,118.4
		c0.2-0.8,0.3-1.5,0.3-2.4v-3.8l3.8,3.8C114.7,117.1,113.3,117.9,111.7,118.4z M112.2,112h3.8c0.8,0,1.6-0.1,2.4-0.3
		c-0.5,1.6-1.3,3-2.4,4.1L112.2,112z"/>
</g>
<g>
	<path d="M116.7,77.1h-11.9V4.3c0-1.2-1-2.3-2.3-2.3h-2.6c-0.6,0-1.2,0.2-1.6,0.7l-5.8,5.8l-5.8-5.8c-0.4-0.4-1-0.7-1.6-0.7h-2.9
		c-0.6,0-1.2,0.2-1.6,0.7l-5.8,5.8L69,2.7C68.5,2.2,68,2,67.4,2h-2.9c-0.6,0-1.2,0.2-1.6,0.7L57,8.5l-5.8-5.8
		c-0.4-0.4-1-0.7-1.6-0.7h-2.9c-0.6,0-1.2,0.2-1.6,0.7l-5.8,5.8l-5.8-5.8c-0.4-0.4-1-0.7-1.6-0.7H29c-0.6,0-1.2,0.2-1.6,0.7
		l-5.8,5.8l-5.8-5.8c-0.4-0.4-1-0.7-1.6-0.7h-2.9c-1.2,0-2.3,1-2.3,2.3v108c0,7.6,6.2,13.8,13.8,13.8h86.3h1h0.3c0.1,0,0.3,0,0.4,0
		c4.5-0.4,8.1-4.4,8.1-9.2V79.4C118.9,78.1,117.9,77.1,116.7,77.1z M13.6,112.2V6.8l6.4,6.4c0.9,0.9,2.3,0.9,3.2,0l6.7-6.7H31
		l6.7,6.7c0.9,0.9,2.3,0.9,3.2,0l6.7-6.7h1.1l6.7,6.7c0.9,0.9,2.3,0.9,3.2,0l6.7-6.7h1.1l6.7,6.7c0.9,0.9,2.3,0.9,3.2,0l6.7-6.7h1.1
		l6.7,6.7c0.9,0.9,2.3,0.9,3.2,0l6.2-6.2v72.3v36.4v0.9c0,1.7,0.5,3.3,1.3,4.7H22.8C17.7,121.5,13.6,117.3,13.6,112.2z M114.4,116.8
		c0,2.6-1.9,4.7-4.3,4.7h-1c-2.4,0-4.3-2.1-4.3-4.7v-0.9V81.6h9.6V116.8z"/>
	<path d="M88.8,55.9c-0.1,0.1-0.2,0.2-0.3,0.3c-0.1,0.1-0.2,0.2-0.3,0.3c-0.1,0.1-0.2,0.3-0.2,0.4c-0.1,0.1-0.1,0.3-0.1,0.4
		c0,0.2,0,0.3,0,0.4c0,0.2,0,0.3,0,0.5c0,0.1,0.1,0.3,0.1,0.4c0.1,0.1,0.1,0.3,0.2,0.4c0.1,0.1,0.2,0.2,0.3,0.3
		c0.1,0.1,0.2,0.2,0.3,0.3c0.1,0.1,0.3,0.2,0.4,0.2c0.1,0.1,0.3,0.1,0.4,0.1c0.2,0,0.3,0,0.5,0c0.6,0,1.2-0.3,1.6-0.7
		c0.1-0.1,0.2-0.2,0.3-0.3c0.1-0.1,0.2-0.3,0.2-0.4c0.1-0.1,0.1-0.3,0.1-0.4c0-0.2,0-0.3,0-0.5c0-0.1,0-0.3,0-0.4
		c0-0.1-0.1-0.3-0.1-0.4c-0.1-0.1-0.1-0.3-0.2-0.4c-0.1-0.1-0.2-0.2-0.3-0.3c-0.5-0.5-1.3-0.8-2-0.6c-0.1,0-0.3,0.1-0.4,0.1
		C89,55.8,88.9,55.8,88.8,55.9z"/>
	<circle cx="77.2" cy="57.8" r="2.3"/>
	<circle cx="38.7" cy="57.8" r="2.3"/>
	<circle cx="51.5" cy="57.8" r="2.3"/>
	<path d="M64.4,55.5c-1.3,0-2.3,1-2.3,2.3c0,1.3,1,2.3,2.3,2.3c1.3,0,2.3-1,2.3-2.3C66.6,56.6,65.6,55.5,64.4,55.5z"/>
	<path d="M27.5,59.4c0.4-0.4,0.7-1,0.7-1.6c0-0.6-0.2-1.2-0.7-1.6c-0.8-0.8-2.4-0.8-3.2,0c-0.4,0.4-0.6,1-0.6,1.6c0,0.1,0,0.3,0,0.4
		c0,0.1,0.1,0.3,0.1,0.4c0.1,0.1,0.1,0.3,0.2,0.4c0.1,0.1,0.2,0.2,0.3,0.3c0.4,0.4,1,0.7,1.6,0.7C26.5,60.1,27.1,59.8,27.5,59.4z"/>
	<path d="M25.6,47.1h1.4c0.6,0,1.1-0.5,1.1-1.1v-7.4h8.2c0.6,0,1.1-0.5,1.1-1.1v-1.2c0-0.6-0.5-1.1-1.1-1.1h-8.2v-5.8H37
		c0.6,0,1.1-0.5,1.1-1.1v-1.2c0-0.6-0.5-1.1-1.1-1.1H25.6c-0.6,0-1.1,0.5-1.1,1.1v19C24.5,46.6,25,47.1,25.6,47.1z"/>
	<path d="M41.7,47.1H53c0.6,0,1.1-0.5,1.1-1.1v-1.2c0-0.6-0.5-1.1-1.1-1.1h-8.8v-5.9h8.2c0.6,0,1.1-0.5,1.1-1.1v-1.2
		c0-0.6-0.5-1.1-1.1-1.1h-8.2v-4.9H53c0.6,0,1.1-0.5,1.1-1.1v-1.2c0-0.6-0.5-1.1-1.1-1.1H41.7c-0.6,0-1.1,0.5-1.1,1.1v19
		C40.6,46.6,41.1,47.1,41.7,47.1z"/>
	<path d="M70.5,25.8H59.2c-0.6,0-1.1,0.5-1.1,1.1v19c0,0.6,0.5,1.1,1.1,1.1h11.3c0.6,0,1.1-0.5,1.1-1.1v-1.2c0-0.6-0.5-1.1-1.1-1.1
		h-8.8v-5.9H70c0.6,0,1.1-0.5,1.1-1.1v-1.2c0-0.6-0.5-1.1-1.1-1.1h-8.2v-4.9h8.8c0.6,0,1.1-0.5,1.1-1.1v-1.2
		C71.7,26.3,71.1,25.8,70.5,25.8z"/>
	<path d="M74.9,46.5c1.5,0.6,3.5,0.8,6.2,0.8c2.3,0,4.3-0.5,5.7-1.6c1.6-1.1,2.4-2.7,2.4-4.7c0-1.1-0.2-2-0.7-2.8
		c-0.5-0.8-1.2-1.4-2.2-2c-0.9-0.5-2.2-1.1-3.9-1.6c-1.8-0.6-2.7-1-3.1-1.2c-0.5-0.3-0.8-0.5-1-0.8c-0.2-0.3-0.2-0.6-0.2-1.1
		c0-0.8,0.3-1.3,0.9-1.7c1.5-1.1,4.5-1,7.5,0.1c0.6,0.2,1.2,0,1.4-0.6l0.5-1.1c0.1-0.3,0.1-0.6,0-0.9c-0.1-0.3-0.3-0.5-0.6-0.6
		c-1.8-0.7-3.8-1.1-5.9-1.1c-2.2,0-4,0.5-5.4,1.6c-1.5,1.1-2.3,2.6-2.3,4.4c0,1.6,0.5,2.9,1.6,3.9c0.9,0.9,2.5,1.7,4.8,2.4
		c1.4,0.4,2.4,0.8,3.1,1.2c0.6,0.3,1,0.6,1.2,0.9c0.2,0.3,0.3,0.7,0.3,1.1c0,0.8-0.3,1.4-1,1.9c-0.8,0.6-1.9,0.9-3.4,0.9
		c-2.2,0-4-0.3-5.3-0.8c-0.3-0.1-0.7-0.1-1,0.1c-0.3,0.2-0.5,0.6-0.5,0.9v1.3C74.2,45.9,74.5,46.4,74.9,46.5z"/>
	<path d="M84.2,89.3v-8.8c2,0.2,3.9,0.7,5.5,1.4c0.3,0.1,0.6,0.1,0.9,0c0.3-0.1,0.5-0.4,0.6-0.7l0.7-2c0.2-0.6-0.1-1.2-0.6-1.4
		c-2.1-0.9-4.5-1.4-7.2-1.6V73c0-0.6-0.5-1.1-1.1-1.1h-1.8c-0.6,0-1.1,0.5-1.1,1.1v3.3c-2.2,0.4-4,1.2-5.3,2.5
		c-1.7,1.5-2.5,3.3-2.5,5.5c0,1.5,0.3,2.8,0.8,3.8c0.6,1.1,1.5,2,2.7,2.8c1,0.6,2.4,1.2,4.3,1.8v9.4c-0.9-0.1-1.9-0.2-2.9-0.5
		c-1.5-0.4-2.8-0.8-3.8-1.3c-0.4-0.2-0.8-0.1-1.1,0.1c-0.3,0.2-0.5,0.6-0.5,1v2.3c0,0.4,0.3,0.8,0.6,1c1,0.5,2.4,0.9,4.1,1.2
		c1.3,0.2,2.5,0.4,3.6,0.5v4.1c0,0.6,0.5,1.1,1.1,1.1h1.8c0.6,0,1.1-0.5,1.1-1.1v-4.3c2.4-0.4,4.3-1.3,5.7-2.5
		c1.7-1.5,2.6-3.4,2.6-5.7c0-2.2-0.7-4-2.1-5.4C89.2,91.4,87.2,90.3,84.2,89.3z M87.8,97.9c0,1.1-0.4,2-1.2,2.7
		c-0.6,0.6-1.4,1-2.4,1.2v-7.7c1.1,0.4,2,0.9,2.6,1.4C87.5,96.2,87.8,96.9,87.8,97.9z M80.1,80.8V88c-1-0.4-1.7-0.8-2.2-1.3
		C77.3,86,77,85.3,77,84.3c0-0.9,0.3-1.7,1-2.4C78.5,81.4,79.2,81,80.1,80.8z"/>
	<path d="M56.3,74.9H27.1c-1.2,0-2.3,1-2.3,2.3s1,2.3,2.3,2.3h29.2c1.2,0,2.3-1,2.3-2.3S57.6,74.9,56.3,74.9z"/>
	<path d="M56.3,89.5H27.1c-1.2,0-2.3,1-2.3,2.3s1,2.3,2.3,2.3h29.2c1.2,0,2.3-1,2.3-2.3S57.6,89.5,56.3,89.5z"/>
	<path d="M43.2,104h-16c-1.2,0-2.3,1-2.3,2.3s1,2.3,2.3,2.3h16c1.2,0,2.3-1,2.3-2.3S44.4,104,43.2,104z"/>
</g>
</svg>
