<?xml version="1.0" encoding="utf-8"?>
<!-- Generator: Adobe Illustrator 24.3.0, SVG Export Plug-In . SVG Version: 6.00 Build 0)  -->
<svg version="1.1" id="Layer_1" xmlns="http://www.w3.org/2000/svg" xmlns:xlink="http://www.w3.org/1999/xlink" x="0px" y="0px"
	 viewBox="0 0 74 74" style="enable-background:new 0 0 74 74;" xml:space="preserve">
<style type="text/css">
	.st0{fill:#FFFFFF;}
</style>
<g>
	<path class="st0" d="M29.28,9.57h19.64v3.28c0,2.04,1.67,3.66,3.66,3.66c1.98,0,3.66-1.67,3.66-3.66V5.97
		c0-2.04-1.67-3.66-3.66-3.66c-1.98,0-3.66,1.67-3.66,3.66v1.12H29.28c-0.68,0-1.24,0.56-1.24,1.24S28.6,9.57,29.28,9.57z
		 M51.47,5.97c0-0.62,0.5-1.18,1.18-1.18c0.62,0,1.18,0.5,1.18,1.18v6.88c0,0.62-0.5,1.18-1.18,1.18c-0.62,0-1.18-0.5-1.18-1.18
		V5.97z"/>
	<path class="st0" d="M54.12,69.14H16.64c-7.13,0-12.89-5.76-12.89-12.89v-33.8c0-6.51,4.9-12.02,11.34-12.83
		c0.68-0.06,1.18-0.68,1.12-1.43c-0.06-0.68-0.68-1.18-1.43-1.12C7.04,8.14,1.21,14.71,1.21,22.46v33.8
		c0,8.49,6.88,15.43,15.43,15.43h37.54c0.68,0,1.24-0.56,1.24-1.24S54.86,69.14,54.12,69.14z"/>
	<path class="st0" d="M72.78,22.39c0.01-3.33-1.1-6.47-2.99-9.03c-0.05-0.07-0.11-0.14-0.16-0.2c-0.21-0.28-0.43-0.55-0.66-0.82
		c-0.13-0.14-0.26-0.28-0.39-0.42c-0.17-0.18-0.33-0.36-0.51-0.53c-0.21-0.21-0.44-0.4-0.66-0.6c-0.1-0.09-0.2-0.18-0.3-0.26
		c-2.2-1.81-4.9-3.05-7.9-3.46c-0.74-0.06-1.36,0.43-1.43,1.12c-0.06,0.74,0.43,1.36,1.12,1.43c0.07,0.01,0.14,0.03,0.21,0.04
		c0.09,0.04,0.18,0.07,0.28,0.09c1.92,0.29,3.69,1.02,5.23,2.07c0.05,0.04,0.1,0.08,0.16,0.11c0.24,0.17,0.48,0.35,0.71,0.54
		c0.1,0.08,0.2,0.17,0.3,0.26c0.17,0.15,0.35,0.3,0.51,0.47c0.15,0.14,0.29,0.29,0.43,0.44c0.11,0.11,0.21,0.22,0.32,0.34
		c0.21,0.24,0.4,0.48,0.59,0.73c0.03,0.03,0.05,0.07,0.08,0.1c1.59,2.15,2.52,4.8,2.52,7.64v1.05H9.02c-0.43,0-0.81,0.37-0.81,0.81
		s0.37,0.81,0.81,0.81h61.22v31.13c0,7.13-5.76,12.89-12.89,12.89h2.53c-0.74,0-1.3,0.62-1.3,1.3c0,0.49,0.29,0.9,0.71,1.11
		c7.63-0.95,13.5-7.46,13.5-15.3v-33.8C72.79,22.43,72.78,22.41,72.78,22.39z"/>
	<path class="st0" d="M59.82,71.68c-0.19,0-0.37-0.05-0.53-0.13c-0.63,0.08-1.28,0.13-1.93,0.13H59.82z"/>
	<path class="st0" d="M21.48,16.51c2.04,0,3.66-1.67,3.66-3.66V5.97c0-2.04-1.67-3.66-3.66-3.66c-2.04,0-3.66,1.67-3.66,3.66v6.88
		C17.76,14.9,19.43,16.51,21.48,16.51z M20.3,5.97c0-0.62,0.5-1.18,1.18-1.18c0.62,0,1.18,0.5,1.18,1.18v6.88
		c0,0.62-0.5,1.18-1.18,1.18c-0.62,0-1.18-0.5-1.18-1.18V5.97z"/>
	<path class="st0" d="M43.31,31.35c-0.28-0.28-0.66-0.44-1.06-0.44h0l-18.13,0c-1.5,0-2.9,0.58-3.96,1.64s-1.64,2.46-1.64,3.96
		l0,11.82c0,0.4,0.16,0.78,0.44,1.06s0.66,0.44,1.06,0.44h0l18.13,0c3.09,0,5.6-2.51,5.6-5.6l0-11.82
		C43.75,32.01,43.6,31.63,43.31,31.35z M38.16,46.83l-16.63,0l0-10.32c0-0.69,0.27-1.35,0.76-1.84s1.14-0.76,1.84-0.76l16.63,0
		l0,10.32C40.76,45.67,39.59,46.83,38.16,46.83z"/>
	<path class="st0" d="M54.7,31.1c-0.48-0.26-1.06-0.25-1.52,0.04l-6.91,4.31c-0.7,0.44-0.92,1.36-0.48,2.07
		c0.44,0.7,1.36,0.92,2.07,0.48l4.62-2.88l0,10.52l-4.62-2.88c-0.7-0.44-1.63-0.22-2.07,0.48c-0.44,0.7-0.22,1.63,0.48,2.07
		l6.91,4.3c0.24,0.15,0.52,0.23,0.79,0.23c0.25,0,0.5-0.06,0.73-0.19c0.48-0.26,0.77-0.77,0.77-1.31l0-15.92
		C55.47,31.86,55.17,31.36,54.7,31.1z"/>
	<path class="st0" d="M20.97,60.94c-0.09,0.1-0.16,0.19-0.21,0.26c-0.06,0.08-0.11,0.17-0.14,0.26c-0.04,0.1-0.06,0.21-0.06,0.33
		c0,0.33,0.11,0.59,0.34,0.79c0.22,0.19,0.53,0.29,0.93,0.29l4.96,0c0.3,0,0.54-0.08,0.71-0.23c0.17-0.16,0.26-0.37,0.26-0.62
		c0-0.25-0.09-0.46-0.27-0.61c-0.17-0.14-0.41-0.19-0.7-0.21l-3.51,0l3.32-3.96c0.29-0.35,0.49-0.59,0.59-0.75
		c0.12-0.19,0.18-0.44,0.18-0.73c0-0.67-0.39-1.04-1.09-1.04l-4.35,0c-0.3,0-0.54,0.08-0.7,0.23c-0.17,0.16-0.26,0.36-0.26,0.61
		c0,0.24,0.09,0.45,0.27,0.6c0.17,0.15,0.4,0.22,0.7,0.22l2.84,0l-3.58,4.29L20.97,60.94z"/>
	<path class="st0" d="M34.26,55.12c-0.6-0.34-1.33-0.51-2.16-0.51c-0.61,0-1.17,0.1-1.66,0.29c-0.49,0.2-0.91,0.48-1.26,0.85
		c-0.34,0.37-0.61,0.82-0.79,1.34c-0.18,0.51-0.27,1.08-0.27,1.7c0,0.6,0.09,1.16,0.26,1.68c0.17,0.53,0.43,0.98,0.77,1.36
		c0.34,0.38,0.77,0.67,1.27,0.88c0.5,0.2,1.07,0.31,1.7,0.31c0.63,0,1.2-0.1,1.69-0.3c0.5-0.2,0.93-0.5,1.27-0.88
		c0.34-0.38,0.6-0.83,0.77-1.34c0.17-0.51,0.25-1.08,0.25-1.69c0-0.83-0.16-1.57-0.46-2.2C35.34,55.96,34.87,55.46,34.26,55.12z
		 M33.78,60.2c-0.17,0.37-0.41,0.64-0.69,0.81c-0.52,0.31-1.2,0.34-1.71,0.11c-0.23-0.1-0.42-0.25-0.6-0.45
		c-0.18-0.2-0.32-0.47-0.41-0.78c-0.1-0.32-0.15-0.7-0.15-1.1c0-0.4,0.05-0.77,0.15-1.09c0.1-0.31,0.23-0.57,0.4-0.77
		c0.16-0.19,0.36-0.34,0.59-0.44c0.23-0.1,0.48-0.15,0.76-0.15c0.39,0,0.72,0.09,1.02,0.28c0.3,0.19,0.52,0.45,0.68,0.82
		c0.17,0.38,0.25,0.83,0.25,1.35C34.05,59.35,33.96,59.82,33.78,60.2z"/>
	<path class="st0" d="M40.82,54.6c-0.61,0-1.17,0.1-1.66,0.29c-0.49,0.2-0.91,0.48-1.26,0.85c-0.34,0.37-0.61,0.82-0.79,1.34
		c-0.18,0.51-0.27,1.08-0.27,1.7c0,0.6,0.09,1.16,0.26,1.68c0.17,0.52,0.43,0.98,0.77,1.35c0.34,0.38,0.77,0.67,1.27,0.88
		c0.5,0.2,1.07,0.31,1.7,0.31c0.63,0,1.2-0.1,1.69-0.3c0.5-0.2,0.93-0.5,1.27-0.88c0.34-0.38,0.6-0.83,0.77-1.34
		c0.17-0.51,0.25-1.08,0.25-1.69c0-0.83-0.16-1.57-0.46-2.2c-0.31-0.64-0.78-1.13-1.39-1.48C42.38,54.77,41.66,54.6,40.82,54.6
		C40.83,54.6,40.82,54.6,40.82,54.6z M42.52,57.43c0.17,0.38,0.25,0.83,0.25,1.35c0,0.56-0.09,1.04-0.27,1.42
		c-0.17,0.37-0.41,0.64-0.69,0.81c-0.52,0.31-1.2,0.34-1.71,0.11c-0.23-0.1-0.42-0.25-0.6-0.45c-0.18-0.2-0.32-0.47-0.41-0.78
		c-0.1-0.32-0.15-0.7-0.15-1.1c0-0.4,0.05-0.77,0.15-1.09c0.1-0.31,0.23-0.57,0.4-0.77c0.16-0.19,0.36-0.34,0.59-0.44
		c0.23-0.1,0.48-0.15,0.76-0.15c0.39,0,0.73,0.09,1.02,0.27C42.14,56.79,42.36,57.06,42.52,57.43z"/>
	<path class="st0" d="M52.27,54.73l-0.23,0c-0.32,0-0.56,0.03-0.72,0.1c-0.19,0.08-0.33,0.22-0.42,0.41
		c-0.07,0.15-0.14,0.38-0.23,0.7l-0.87,3.27l-0.87-3.27c-0.08-0.32-0.16-0.55-0.23-0.7c-0.09-0.19-0.23-0.33-0.42-0.41
		c-0.16-0.07-0.4-0.1-0.72-0.1h-0.23l-0.04-0.15v0.15h-0.21c-0.34,0-0.63,0.07-0.84,0.22c-0.25,0.17-0.37,0.46-0.37,0.88l0,6.05
		c0,0.36,0.09,0.64,0.26,0.83c0.18,0.2,0.41,0.3,0.7,0.3c0.29,0,0.53-0.1,0.7-0.3c0.17-0.19,0.26-0.47,0.26-0.82l0-3.26l0.73,2.91
		l0.12,0.47c0.05,0.17,0.11,0.32,0.19,0.46c0.09,0.16,0.22,0.29,0.38,0.39c0.16,0.1,0.36,0.16,0.59,0.16c0.3,0,0.55-0.08,0.73-0.25
		c0.17-0.15,0.28-0.32,0.35-0.51c0.05-0.15,0.12-0.39,0.2-0.71l0.73-2.91l0,3.26c0,0.35,0.09,0.63,0.26,0.82
		c0.37,0.41,1.05,0.39,1.4,0c0.17-0.19,0.26-0.47,0.26-0.82l0-6.05c0-0.42-0.12-0.72-0.37-0.88c-0.22-0.14-0.5-0.22-0.84-0.22
		l-0.21,0v-0.15L52.27,54.73z"/>
</g>
</svg>
