<?xml version="1.0" encoding="utf-8"?>
<!-- Generator: Adobe Illustrator 25.3.1, SVG Export Plug-In . SVG Version: 6.00 Build 0)  -->
<svg version="1.1" id="Layer_1" xmlns="http://www.w3.org/2000/svg" xmlns:xlink="http://www.w3.org/1999/xlink" x="0px" y="0px"
	 viewBox="0 0 128 128" style="enable-background:new 0 0 128 128;" xml:space="preserve">
<style type="text/css">
	.st0{display:none;}
	.st1{display:inline;opacity:0.1;enable-background:new    ;}
</style>
<g id="Layer_1_1_" class="st0">
	<path class="st1" d="M118.6,111.6c4.2-1.2,7.4-5,7.4-9.6V26c0-4.6-3.1-8.5-7.4-9.6c-0.5-1.7-1.3-3.1-2.5-4.3L128,0.2L127.8,0
		L116,11.9c-1.2-1.2-2.7-2-4.3-2.5c-1.2-4.2-5-7.4-9.6-7.4H26c-4.6,0-8.5,3.1-9.6,7.4c-1.7,0.5-3.1,1.3-4.3,2.5l-12-12l-0.2,0.2
		l12,11.9c-1.2,1.2-2,2.7-2.5,4.3C5.1,17.5,2,21.4,2,26v76c0,4.6,3.1,8.5,7.4,9.6c0.5,1.7,1.3,3.1,2.5,4.3L0,127.8l0.2,0.2L12,116.1
		c1.2,1.2,2.7,2,4.3,2.5c1.2,4.2,5,7.4,9.6,7.4h76c4.6,0,8.5-3.1,9.6-7.4c1.7-0.5,3.1-1.3,4.3-2.5l11.9,11.9l0.2-0.2L116.1,116
		C117.3,114.8,118.2,113.3,118.6,111.6z M118.4,111.4c-0.8,0.2-1.6,0.3-2.4,0.3h-4v-8.5c2.6-3.1,4.8-6.5,6.8-10.1V109
		C118.8,109.8,118.6,110.7,118.4,111.4z M112,102.8V25.2c2.6,3.2,4.8,6.6,6.8,10.3v57C116.8,96.2,114.6,99.6,112,102.8z M125.8,102
		c0,4.4-3,8.2-7,9.4c0.2-0.8,0.3-1.5,0.3-2.4V92.6c3.7-7,6-14.9,6.8-23.2V102H125.8z M119,92V36c4.3,8.4,6.8,17.9,6.8,28
		S123.3,83.6,119,92z M125.8,26v32.6c-0.7-8.3-3.1-16.1-6.8-23.2V19c0-0.8-0.1-1.6-0.3-2.4C122.8,17.8,125.8,21.6,125.8,26z
		 M118.8,19v15.9c-1.9-3.6-4.2-7-6.8-10.1v-8.5h4c0.8,0,1.7,0.1,2.4,0.3C118.6,17.3,118.8,18.2,118.8,19z M118.4,16.3
		c-0.8-0.2-1.5-0.3-2.4-0.3h-3.8l3.8-3.8C117.1,13.3,117.9,14.7,118.4,16.3z M115.8,12l-3.8,3.8V12c0-0.8-0.1-1.6-0.3-2.4
		C113.3,10.1,114.7,10.9,115.8,12z M111.8,12v4h-8.5c-3.1-2.6-6.5-4.8-10.1-6.8H109c0.8,0,1.7,0.1,2.4,0.3
		C111.6,10.3,111.8,11.2,111.8,12z M24.9,111.8c-1.5-1.3-3-2.6-4.4-4L64,64.2l43.5,43.5c-1.4,1.4-2.9,2.8-4.4,4H24.9V111.8z
		 M102.8,112c-3.2,2.6-6.6,4.8-10.3,6.8h-57c-3.7-1.9-7.1-4.2-10.3-6.8H102.8z M103.1,16.2c1.5,1.3,3,2.6,4.4,4L64,63.8L20.5,20.3
		c1.4-1.4,2.9-2.8,4.4-4L103.1,16.2L103.1,16.2z M25.2,16c3.2-2.6,6.6-4.8,10.3-6.8h57c3.7,1.9,7.1,4.2,10.3,6.8H25.2z M103.5,16.2
		h8l-3.8,3.8C106.4,18.7,105,17.5,103.5,16.2z M20.3,20.1l-3.8-3.8h8C23,17.5,21.6,18.7,20.3,20.1z M20.1,20.3
		c-1.3,1.3-2.6,2.7-3.8,4.2v-8L20.1,20.3z M20.3,20.5L63.8,64l-43.5,43.5c-1.4-1.4-2.8-2.9-4-4.4V24.9
		C17.5,23.3,18.9,21.9,20.3,20.5z M20.1,107.7l-3.8,3.8v-8C17.5,105,18.7,106.4,20.1,107.7z M20.3,107.9c1.3,1.3,2.7,2.6,4.2,3.8h-8
		L20.3,107.9z M107.7,107.9l3.8,3.8h-8C105,110.5,106.4,109.3,107.7,107.9z M107.9,107.7c1.3-1.3,2.6-2.7,3.8-4.2v8L107.9,107.7z
		 M107.7,107.5L64.2,64l43.5-43.5c1.4,1.4,2.8,2.9,4,4.4v78.2C110.5,104.7,109.1,106.1,107.7,107.5z M107.9,20.3l3.8-3.8v8
		C110.5,23,109.3,21.6,107.9,20.3z M102,2.2c4.4,0,8.2,3,9.4,7C110.6,9.1,109.8,9,109,9H92.6c-7-3.7-14.9-6-23.2-6.8
		C69.4,2.2,102,2.2,102,2.2z M92,9H36c8.4-4.3,17.9-6.8,28-6.8S83.6,4.7,92,9z M26,2.2h32.6C50.3,3,42.4,5.3,35.4,9H19
		c-0.8,0-1.6,0.1-2.4,0.3C17.8,5.2,21.6,2.2,26,2.2z M16.6,9.6c0.8-0.2,1.6-0.3,2.4-0.3h15.9c-3.6,1.9-7,4.2-10.1,6.8h-8.5v-4
		C16.2,11.2,16.4,10.3,16.6,9.6z M16.3,9.6C16.1,10.4,16,11.2,16,12v3.8L12.2,12C13.3,10.9,14.7,10.1,16.3,9.6z M12,12.2l3.8,3.8H12
		c-0.8,0-1.6,0.1-2.4,0.3C10.1,14.7,10.9,13.3,12,12.2z M9.6,16.6c0.8-0.2,1.6-0.3,2.4-0.3h4v8.5c-2.6,3.1-4.8,6.5-6.8,10.1V19
		C9.2,18.2,9.4,17.3,9.6,16.6z M16,25.2v77.6c-2.6-3.2-4.8-6.6-6.8-10.3v-57C11.2,31.8,13.4,28.4,16,25.2z M2.2,26
		c0-4.4,3-8.2,7-9.4C9.1,17.4,9,18.2,9,19v16.4c-3.7,7-6,14.9-6.8,23.2C2.2,58.6,2.2,26,2.2,26z M9,36v56c-4.3-8.4-6.8-17.9-6.8-28
		S4.7,44.4,9,36z M2.2,102V69.4C3,77.7,5.3,85.6,9,92.6V109c0,0.8,0.1,1.6,0.3,2.4C5.2,110.2,2.2,106.4,2.2,102z M9.2,109V93.1
		c1.9,3.6,4.2,7,6.8,10.1v8.5h-4c-0.8,0-1.7-0.1-2.4-0.3C9.4,110.7,9.2,109.8,9.2,109z M12,115.8c-1.1-1.1-1.9-2.5-2.4-4.1
		c0.8,0.2,1.5,0.3,2.4,0.3h3.8L12,115.8z M12.2,116l3.8-3.8v3.8c0,0.8,0.1,1.6,0.3,2.4C14.7,117.9,13.3,117.1,12.2,116z M16.2,116
		v-4h8.5c3.1,2.6,6.5,4.8,10.1,6.8H19c-0.8,0-1.7-0.1-2.4-0.3C16.4,117.7,16.2,116.8,16.2,116z M26,125.8c-4.4,0-8.2-3-9.4-7
		c0.8,0.2,1.5,0.3,2.4,0.3h16.4c7,3.7,14.9,6,23.2,6.8H26V125.8z M36,119h56c-8.4,4.3-17.9,6.8-28,6.8S44.4,123.3,36,119z
		 M102,125.8H69.4c8.3-0.7,16.1-3.1,23.2-6.8H109c0.8,0,1.6-0.1,2.4-0.3C110.2,122.8,106.4,125.8,102,125.8z M111.4,118.4
		c-0.8,0.2-1.6,0.3-2.4,0.3H93.1c3.6-1.9,7-4.2,10.1-6.8h8.5v4C111.8,116.8,111.6,117.7,111.4,118.4z M111.7,118.4
		c0.2-0.8,0.3-1.5,0.3-2.4v-3.8l3.8,3.8C114.7,117.1,113.3,117.9,111.7,118.4z M112.2,112h3.8c0.8,0,1.6-0.1,2.4-0.3
		c-0.5,1.6-1.3,3-2.4,4.1L112.2,112z"/>
</g>
<g>
	<path d="M114.6,47.2c-3.3,0-6.7,1.8-6.7,5.2v5.1l-7.7,0v5.2l7.7,0V104c0,1.4,1.2,2.6,2.6,2.6c0.8,0,1.4-0.3,1.9-0.8
		c0.5-0.1,1.4-0.2,2.2-0.2c3.4,0,6.2,2.8,6.2,6.2c0,4.3-3.5,7.7-7.7,7.7H14.9c-4.2,0-7.7-3.5-7.7-7.7c0,0,0,0,0,0
		c0-3.4,2.8-6.2,6.2-6.2c0.8,0,1.7,0.1,2.2,0.2c0.5,0.5,1.2,0.8,1.9,0.8c1.4,0,2.6-1.2,2.6-2.6V62.7h20.6v-5.2H20.1v-5.1
		c0-3.4-3.5-5.2-6.7-5.2C6.8,47.2,2,51.5,2,57.5v54.2h0c0,7.1,5.8,12.9,12.9,12.9h98.1c7.1,0,12.9-5.8,12.9-12.9V57.5
		C126,51.5,121.2,47.2,114.6,47.2z M7.2,57.5c0-3.8,3.3-5.1,6.2-5.1c0.6,0,1.2,0.2,1.5,0.3v47.6c-0.5,0-1-0.1-1.5-0.1
		c-2.3,0-4.4,0.7-6.2,1.8V57.5z M114.6,100.3c-0.5,0-1,0-1.5,0.1V52.8c0.3-0.2,0.9-0.3,1.5-0.3c2.9,0,6.2,1.3,6.2,5.1v44.6
		C119,101,116.9,100.3,114.6,100.3z"/>
	<path d="M14.9,42.1h20.7c1.4,0,2.6-1.2,2.6-2.6v-2.5h7.7v59.3h-7.7v5.2h31v-5.2h-7.7V36.9h18V49l-9.1,13.7h-3.8v5.2h31v-5.2h-3.8
		L84.7,49V36.9h23.2c1.1,0,2-0.6,2.4-1.6c0.4-1,0.2-2.1-0.6-2.9L99.4,22.1c-0.5-0.5-1.2-0.8-1.9-0.8h-6.8L49.6,3.5
		c-0.8-0.3-1.6-0.3-2.4,0.1L16.8,21.4h-1.9c-1.4,0-2.6,1.2-2.6,2.6v15.5C12.3,40.9,13.5,42.1,14.9,42.1z M76.6,62.7l5.4-8.1l5.4,8.1
		H76.6z M33,36.9H17.6V26.6H33V36.9z M56.2,96.2h-5.1V36.9h5.1V96.2z M101.6,31.7H38.2v-5.1h58.3L101.6,31.7z M51.1,21.4V9.9
		l26.4,11.5H51.1z M45.9,10.5v10.9H35.6h-8.4L45.9,10.5z"/>
</g>
</svg>
