<?xml version="1.0" encoding="utf-8"?>
<!-- Generator: Adobe Illustrator 24.3.0, SVG Export Plug-In . SVG Version: 6.00 Build 0)  -->
<svg version="1.1" id="Layer_1" xmlns="http://www.w3.org/2000/svg" xmlns:xlink="http://www.w3.org/1999/xlink" x="0px" y="0px"
	 viewBox="0 0 128 128" style="enable-background:new 0 0 128 128;" xml:space="preserve">
<style type="text/css">
	.st0{display:none;}
	.st1{display:inline;opacity:0.1;enable-background:new    ;}
	.st2{fill:#FFFFFF;}
</style>
<g id="Layer_1_1_" class="st0">
	<path class="st1" d="M118.6,111.6c4.2-1.2,7.4-5,7.4-9.6V26c0-4.6-3.1-8.5-7.4-9.6c-0.5-1.7-1.3-3.1-2.5-4.3L128,0.2L127.8,0
		L116,11.9c-1.2-1.2-2.7-2-4.3-2.5c-1.2-4.2-5-7.4-9.6-7.4H26c-4.6,0-8.5,3.1-9.6,7.4c-1.7,0.5-3.1,1.3-4.3,2.5l-12-12l-0.2,0.2
		l12,11.9c-1.2,1.2-2,2.7-2.5,4.3C5.1,17.5,2,21.4,2,26v76c0,4.6,3.1,8.5,7.4,9.6c0.5,1.7,1.3,3.1,2.5,4.3L0,127.8l0.2,0.2L12,116.1
		c1.2,1.2,2.7,2,4.3,2.5c1.2,4.2,5,7.4,9.6,7.4h76c4.6,0,8.5-3.1,9.6-7.4c1.7-0.5,3.1-1.3,4.3-2.5l11.9,11.9l0.2-0.2L116.1,116
		C117.3,114.8,118.2,113.3,118.6,111.6z M118.4,111.4c-0.8,0.2-1.6,0.3-2.4,0.3h-4v-8.5c2.6-3.1,4.8-6.5,6.8-10.1V109
		C118.8,109.8,118.6,110.7,118.4,111.4z M112,102.8V25.2c2.6,3.2,4.8,6.6,6.8,10.3v57C116.8,96.2,114.6,99.6,112,102.8z M125.8,102
		c0,4.4-3,8.2-7,9.4c0.2-0.8,0.3-1.5,0.3-2.4V92.6c3.7-7,6-14.9,6.8-23.2V102H125.8z M119,92V36c4.3,8.4,6.8,17.9,6.8,28
		S123.3,83.6,119,92z M125.8,26v32.6c-0.7-8.3-3.1-16.1-6.8-23.2V19c0-0.8-0.1-1.6-0.3-2.4C122.8,17.8,125.8,21.6,125.8,26z
		 M118.8,19v15.9c-1.9-3.6-4.2-7-6.8-10.1v-8.5h4c0.8,0,1.7,0.1,2.4,0.3C118.6,17.3,118.8,18.2,118.8,19z M118.4,16.3
		c-0.8-0.2-1.5-0.3-2.4-0.3h-3.8l3.8-3.8C117.1,13.3,117.9,14.7,118.4,16.3z M115.8,12l-3.8,3.8V12c0-0.8-0.1-1.6-0.3-2.4
		C113.3,10.1,114.7,10.9,115.8,12z M111.8,12v4h-8.5c-3.1-2.6-6.5-4.8-10.1-6.8H109c0.8,0,1.7,0.1,2.4,0.3
		C111.6,10.3,111.8,11.2,111.8,12z M24.9,111.8c-1.5-1.3-3-2.6-4.4-4L64,64.2l43.5,43.5c-1.4,1.4-2.9,2.8-4.4,4H24.9V111.8z
		 M102.8,112c-3.2,2.6-6.6,4.8-10.3,6.8h-57c-3.7-1.9-7.1-4.2-10.3-6.8H102.8z M103.1,16.2c1.5,1.3,3,2.6,4.4,4L64,63.8L20.5,20.3
		c1.4-1.4,2.9-2.8,4.4-4L103.1,16.2L103.1,16.2z M25.2,16c3.2-2.6,6.6-4.8,10.3-6.8h57c3.7,1.9,7.1,4.2,10.3,6.8H25.2z M103.5,16.2
		h8l-3.8,3.8C106.4,18.7,105,17.5,103.5,16.2z M20.3,20.1l-3.8-3.8h8C23,17.5,21.6,18.7,20.3,20.1z M20.1,20.3
		c-1.3,1.3-2.6,2.7-3.8,4.2v-8L20.1,20.3z M20.3,20.5L63.8,64l-43.5,43.5c-1.4-1.4-2.8-2.9-4-4.4V24.9
		C17.5,23.3,18.9,21.9,20.3,20.5z M20.1,107.7l-3.8,3.8v-8C17.5,105,18.7,106.4,20.1,107.7z M20.3,107.9c1.3,1.3,2.7,2.6,4.2,3.8h-8
		L20.3,107.9z M107.7,107.9l3.8,3.8h-8C105,110.5,106.4,109.3,107.7,107.9z M107.9,107.7c1.3-1.3,2.6-2.7,3.8-4.2v8L107.9,107.7z
		 M107.7,107.5L64.2,64l43.5-43.5c1.4,1.4,2.8,2.9,4,4.4v78.2C110.5,104.7,109.1,106.1,107.7,107.5z M107.9,20.3l3.8-3.8v8
		C110.5,23,109.3,21.6,107.9,20.3z M102,2.2c4.4,0,8.2,3,9.4,7C110.6,9.1,109.8,9,109,9H92.6c-7-3.7-14.9-6-23.2-6.8
		C69.4,2.2,102,2.2,102,2.2z M92,9H36c8.4-4.3,17.9-6.8,28-6.8S83.6,4.7,92,9z M26,2.2h32.6C50.3,3,42.4,5.3,35.4,9H19
		c-0.8,0-1.6,0.1-2.4,0.3C17.8,5.2,21.6,2.2,26,2.2z M16.6,9.6c0.8-0.2,1.6-0.3,2.4-0.3h15.9c-3.6,1.9-7,4.2-10.1,6.8h-8.5v-4
		C16.2,11.2,16.4,10.3,16.6,9.6z M16.3,9.6C16.1,10.4,16,11.2,16,12v3.8L12.2,12C13.3,10.9,14.7,10.1,16.3,9.6z M12,12.2l3.8,3.8H12
		c-0.8,0-1.6,0.1-2.4,0.3C10.1,14.7,10.9,13.3,12,12.2z M9.6,16.6c0.8-0.2,1.6-0.3,2.4-0.3h4v8.5c-2.6,3.1-4.8,6.5-6.8,10.1V19
		C9.2,18.2,9.4,17.3,9.6,16.6z M16,25.2v77.6c-2.6-3.2-4.8-6.6-6.8-10.3v-57C11.2,31.8,13.4,28.4,16,25.2z M2.2,26
		c0-4.4,3-8.2,7-9.4C9.1,17.4,9,18.2,9,19v16.4c-3.7,7-6,14.9-6.8,23.2C2.2,58.6,2.2,26,2.2,26z M9,36v56c-4.3-8.4-6.8-17.9-6.8-28
		S4.7,44.4,9,36z M2.2,102V69.4C3,77.7,5.3,85.6,9,92.6V109c0,0.8,0.1,1.6,0.3,2.4C5.2,110.2,2.2,106.4,2.2,102z M9.2,109V93.1
		c1.9,3.6,4.2,7,6.8,10.1v8.5h-4c-0.8,0-1.7-0.1-2.4-0.3C9.4,110.7,9.2,109.8,9.2,109z M12,115.8c-1.1-1.1-1.9-2.5-2.4-4.1
		c0.8,0.2,1.5,0.3,2.4,0.3h3.8L12,115.8z M12.2,116l3.8-3.8v3.8c0,0.8,0.1,1.6,0.3,2.4C14.7,117.9,13.3,117.1,12.2,116z M16.2,116
		v-4h8.5c3.1,2.6,6.5,4.8,10.1,6.8H19c-0.8,0-1.7-0.1-2.4-0.3C16.4,117.7,16.2,116.8,16.2,116z M26,125.8c-4.4,0-8.2-3-9.4-7
		c0.8,0.2,1.5,0.3,2.4,0.3h16.4c7,3.7,14.9,6,23.2,6.8H26V125.8z M36,119h56c-8.4,4.3-17.9,6.8-28,6.8S44.4,123.3,36,119z
		 M102,125.8H69.4c8.3-0.7,16.1-3.1,23.2-6.8H109c0.8,0,1.6-0.1,2.4-0.3C110.2,122.8,106.4,125.8,102,125.8z M111.4,118.4
		c-0.8,0.2-1.6,0.3-2.4,0.3H93.1c3.6-1.9,7-4.2,10.1-6.8h8.5v4C111.8,116.8,111.6,117.7,111.4,118.4z M111.7,118.4
		c0.2-0.8,0.3-1.5,0.3-2.4v-3.8l3.8,3.8C114.7,117.1,113.3,117.9,111.7,118.4z M112.2,112h3.8c0.8,0,1.6-0.1,2.4-0.3
		c-0.5,1.6-1.3,3-2.4,4.1L112.2,112z"/>
</g>
<g>
	<path class="st2" d="M100.7,11c-1.1-0.2-2.1,0.6-2.3,1.7c-0.2,1.1,0.6,2.1,1.7,2.3c10,1.5,17.6,10.4,17.6,20.6v1.6H18.8
		c-0.7,0-1.3,0.6-1.3,1.3s0.6,1.3,1.3,1.3h98.9v49.8c0,1.1,0.9,2,2,2s2-0.9,2-2V35.5C121.8,23.4,112.7,12.8,100.7,11z"/>
	<path class="st2" d="M51.5,14.7h31.7V20c0,3.3,2.7,5.9,5.9,5.9S95,23.2,95,20V8.9C95,5.6,92.3,3,89.1,3s-5.9,2.7-5.9,5.9v1.8H51.5
		c-1.1,0-2,0.9-2,2S50.4,14.7,51.5,14.7z M87.3,8.9c0-1,0.8-1.9,1.9-1.9c1,0,1.9,0.8,1.9,1.9V20c0,1-0.8,1.9-1.9,1.9
		c-1,0-1.9-0.8-1.9-1.9V8.9z"/>
	<path class="st2" d="M59.3,106H31.1c-11.5,0-20.8-9.3-20.8-20.8V35.5c0-10.5,7.9-19.4,18.3-20.7c1.1-0.1,1.9-1.1,1.8-2.3
		c-0.1-1.1-1.1-1.9-2.3-1.8C15.6,12.4,6.2,23,6.2,35.5v49.7c0,13.7,11.1,24.9,24.9,24.9h28.3c1.1,0,2-0.9,2-2S60.5,106,59.3,106z"/>
	<path class="st2" d="M81.9,56.4c2.6,0,4.7-2.1,4.7-4.7c0-2.6-2.1-4.7-4.7-4.7s-4.7,2.1-4.7,4.7C77.2,54.3,79.3,56.4,81.9,56.4z"/>
	<path class="st2" d="M99.7,56.4c2.6,0,4.7-2.1,4.7-4.7c0-2.6-2.1-4.7-4.7-4.7S95,49.1,95,51.7C95,54.3,97.1,56.4,99.7,56.4z"/>
	<path class="st2" d="M28.3,73.7c2.6,0,4.7-2.1,4.7-4.7s-2.1-4.7-4.7-4.7s-4.7,2.1-4.7,4.7S25.7,73.7,28.3,73.7z"/>
	<path class="st2" d="M46.1,73.7c2.6,0,4.7-2.1,4.7-4.7s-2.1-4.7-4.7-4.7c-2.6,0-4.7,2.1-4.7,4.7S43.6,73.7,46.1,73.7z"/>
	<path class="st2" d="M68.7,69.1c0-2.6-2.1-4.7-4.7-4.7c-2.6,0-4.7,2.1-4.7,4.7s2.1,4.7,4.7,4.7C66.6,73.7,68.7,71.6,68.7,69.1z"/>
	<path class="st2" d="M28.3,56.4c2.6,0,4.7-2.1,4.7-4.7c0-2.6-2.1-4.7-4.7-4.7s-4.7,2.1-4.7,4.7C23.6,54.3,25.7,56.4,28.3,56.4z"/>
	<path class="st2" d="M46.1,56.4c2.6,0,4.7-2.1,4.7-4.7c0-2.6-2.1-4.7-4.7-4.7c-2.6,0-4.7,2.1-4.7,4.7
		C41.5,54.3,43.6,56.4,46.1,56.4z"/>
	<path class="st2" d="M64,56.4c2.6,0,4.7-2.1,4.7-4.7c0-2.6-2.1-4.7-4.7-4.7c-2.6,0-4.7,2.1-4.7,4.7C59.3,54.3,61.4,56.4,64,56.4z"
		/>
	<path class="st2" d="M28.3,91.1c2.6,0,4.7-2.1,4.7-4.7s-2.1-4.7-4.7-4.7s-4.7,2.1-4.7,4.7S25.7,91.1,28.3,91.1z"/>
	<path class="st2" d="M46.1,91.1c2.6,0,4.7-2.1,4.7-4.7s-2.1-4.7-4.7-4.7c-2.6,0-4.7,2.1-4.7,4.7S43.6,91.1,46.1,91.1z"/>
	<path class="st2" d="M114.1,88.3c0-1.7-0.6-3.2-1.8-4.4c-1.2-1.2-2.7-1.8-4.4-1.8c-0.9,0-1.8,0.2-2.6,0.6c-0.3-0.7-0.8-1.4-1.3-2
		c-1.2-1.2-2.7-1.8-4.4-1.8l0,0c-1.2,0-2.2,0.3-3.2,0.9c-1.1-1.7-3-2.8-5.2-2.8c-0.8,0-1.5,0.2-2.1,0.4v-11c0-1.7-0.6-3.2-1.8-4.4
		c-1.2-1.2-2.7-1.8-4.4-1.8l0,0c-3.4,0-6.2,2.8-6.2,6.2V87c-1.1-2.3-2.3-3.7-4-4.3c-2.2-0.8-4.3,0.1-5.8,0.9c-0.7,0.4-1.1,1.2-1,2
		l1.6,13.6c0,1.5,0.4,13.9,8.5,19.8c2.7,2,3.4,4.4,3.4,4.5c0.2,0.9,1.1,1.6,2,1.6c0.2,0,0.3,0,0.5-0.1c1.1-0.3,1.8-1.4,1.5-2.4
		c0-0.2-1-3.9-4.9-6.8c-6.8-4.9-6.8-16.5-6.8-16.6s0-0.2,0-0.2l-1.4-12.2c0.4-0.2,0.9-0.2,1.2-0.1c1.4,0.5,3,5.1,5,10.9L77,99
		c0,0,0,0,0,0.1s0.1,0.1,0.1,0.2s0.1,0.1,0.1,0.2s0.1,0.1,0.1,0.2s0.1,0.1,0.1,0.2l0.1,0.1c0.1,0,0.1,0.1,0.2,0.1s0.1,0.1,0.2,0.1
		s0.1,0.1,0.2,0.1s0.1,0,0.2,0.1c0.1,0,0.1,0,0.2,0.1c0.1,0,0.1,0,0.2,0s0.1,0,0.2,0c0,0,0,0,0.1,0h0.1c0.1,0,0.1,0,0.2,0
		s0.1,0,0.2,0h0.1c0,0,0,0,0.1,0s0.1-0.1,0.2-0.1s0.1-0.1,0.2-0.1s0.1-0.1,0.2-0.1s0.1-0.1,0.2-0.1l0.1-0.1c0-0.1,0.1-0.1,0.1-0.2
		s0.1-0.1,0.1-0.2s0.1-0.1,0.1-0.2s0-0.1,0.1-0.2c0-0.1,0-0.1,0.1-0.2c0-0.1,0-0.1,0-0.2s0-0.1,0-0.2c0,0,0,0,0-0.1V66.3
		c0-1.2,1-2.1,2.1-2.1l0,0c0.6,0,1.1,0.2,1.5,0.6s0.6,0.9,0.6,1.5v21.8c0,1.1,0.9,2,2,2s2-0.9,2-2v-5c0-1.2,1-2.1,2.1-2.1
		c1.2,0,2.2,1,2.2,2.1v5.2c0,0.3,0.1,0.6,0.2,0.9c0.3,0.7,1,1.1,1.8,1.1l0,0c1.1,0,2-0.9,2-2V85c0-1.2,1-2.1,2.1-2.1l0,0
		c0.6,0,1.1,0.2,1.5,0.6s0.6,0.9,0.6,1.5v5.1c0,1.1,0.9,2,2,2s2-0.9,2-2v-1.9c0-1.2,1-2.1,2.1-2.1c0.6,0,1.1,0.2,1.5,0.6
		s0.6,0.9,0.6,1.5v7.3l0,0v8.4c-0.1,0.7-0.7,7.6-3.6,12c-3.8,5.6-3.8,6.5-3.8,7c0,1.1,0.9,2,2,2c1,0,1.8-0.7,2-1.6
		c0.1-0.2,0.6-1.5,3.1-5.2c3.7-5.5,4.3-13.7,4.3-14V104v-8.5l0,0v-7.2H114.1z"/>
	<path class="st2" d="M38.9,25.9c3.3,0,5.9-2.7,5.9-5.9V8.9c0-3.3-2.7-5.9-5.9-5.9C35.6,3,33,5.7,33,8.9V20
		C32.9,23.3,35.6,25.9,38.9,25.9z M37,8.9c0-1,0.8-1.9,1.9-1.9c1,0,1.9,0.8,1.9,1.9V20c0,1-0.8,1.9-1.9,1.9c-1,0-1.9-0.8-1.9-1.9
		V8.9z"/>
</g>
</svg>
