<svg enable-background="new 0 0 64 64" viewBox="0 0 64 64" xmlns="http://www.w3.org/2000/svg"><g fill="#685bc7" transform="translate(.012)"><path d="m41.5 48.9-.5-.4c-3.6-3-8.1-4.7-12.7-4.8h-.4l-.4.3c-1.4 1.2-2.7 2.5-3.9 4-1.5-.8-3.2-2.5-5.3-4.9-1.6-1.8-3-3.9-3.9-6.2 1.7-.9 3.2-1.9 4.7-3.1l.3-.3.1-.4c.8-4.6 0-9.3-2.3-13.4l-.3-.5-.6-.1c-4.3-.6-8.6 0-12.6 1.6l-.5.3-.2.5c-2.2 6.4-1.5 17.8 7.2 28.9 8 9.3 16.9 11.3 23.2 11.3 1.3 0 2.5-.1 3.8-.3l.6-.1.3-.5c2.1-3.4 3.3-7.2 3.3-11.2zm-5.1 9.9c-5.5.6-15.5-.1-24.1-10.2-9.8-12.3-7.7-23.2-7-25.8 3.2-1.1 6.7-1.6 10.1-1.3 1.6 3.3 2.2 7 1.7 10.6-1.4 1.1-3 2.1-4.6 2.9l-.9.4.1 1c.3 2.2 1.8 4.9 4.7 8.4 2.8 3.4 5.2 5.4 7.3 6.2l1 .3.6-.8c1.1-1.4 2.3-2.8 3.7-4 3.7.2 7.2 1.5 10.1 3.8-.2 2.9-1.1 5.9-2.7 8.5z"/><path d="m31.8 2.2c-9.6 0-18.6 4.6-24.2 12.3l2.1 1.5c9-12.2 26.3-14.8 38.5-5.8s14.9 26.3 5.8 38.6c-3.2 4.3-7.6 7.6-12.6 9.5l.9 2.4c15.6-5.8 23.6-23.1 17.8-38.7-4.4-11.9-15.6-19.8-28.3-19.8z"/><path d="m35.2 34.9h2.6v3.1h-2.6z"/><path d="m39.6 29.1c1.6-1.3 2.7-3.2 2.9-5.3.1-3.2-2.4-5.9-5.6-6-.1 0-.3 0-.4 0-3.2-.1-5.8 2.3-6 5.5v.5h2.6c-.1-1.8 1.2-3.4 2.9-3.5h.5c1.8-.1 3.3 1.3 3.4 3.1v.4c-.2 1.3-.9 2.5-1.9 3.3-2.4 1.9-2.8 3.6-2.8 6.3h2.6c0-2.3.3-3.1 1.8-4.3z"/></g></svg>